<svg width="1117" height="284" viewBox="0 0 1117 284" fill="none" xmlns="http://www.w3.org/2000/svg">
<g clip-path="url(#clip0_60_102)">
<path d="M422.715 12.5958C422.715 13.7859 422.167 14.7281 421.022 14.7281C420.275 14.7281 419.528 14.381 418.931 13.7859C417.437 12.3974 409.87 6.19871 405.141 6.19871C403.398 6.19871 403.05 7.48804 403.05 8.92614V40.366C403.05 42.6471 404.992 44.5811 407.282 44.5811H408.775C409.92 44.5811 410.518 45.3745 410.518 46.2672C410.518 47.0606 409.92 47.854 408.775 47.854H384.68C383.535 47.854 382.987 47.0606 382.987 46.2672C382.987 45.3745 383.535 44.5811 384.68 44.5811H386.074C388.414 44.5811 390.355 42.6471 390.355 40.366V8.97573C390.355 7.48804 390.007 6.2483 388.214 6.2483C387.069 6.2483 385.675 6.64502 384.182 7.33927C376.963 10.4138 374.374 14.7281 372.483 14.7281C371.387 14.7281 370.79 13.9843 370.79 12.7941C370.79 12.2486 370.939 11.6536 371.139 11.1081L376.565 2.92579C377.71 1.19015 379.403 0.0495911 380.647 0.0495911C380.996 0.0495911 381.444 0.0991807 381.792 0.24795C383.535 1.19015 385.626 1.934 387.667 1.934H405.688C407.73 1.934 409.771 1.19015 411.563 0.24795C411.812 0.0991807 412.36 0.0495911 412.708 0.0495911C413.853 0.0495911 415.546 1.04138 416.79 2.92579L422.217 11.1081C422.466 11.5048 422.615 12.0999 422.615 12.6454L422.715 12.5958Z" fill="#0C0F0E"/>
<path d="M471.254 47.011C469.561 48.697 468.018 49.8376 466.674 49.8376C466.325 49.8376 465.977 49.6888 465.678 49.5897C463.936 48.6475 462.193 47.9036 460.152 47.9036H430.282C429.186 47.9036 428.589 47.1102 428.589 46.3167C428.589 45.4241 429.186 44.6307 430.282 44.6307H431.775C433.816 44.6307 436.007 43.2422 436.007 40.5643V7.6864C436.007 5.2565 433.169 5.20691 431.427 5.20691C430.282 5.20691 429.734 4.3143 429.734 3.52086C429.734 2.72743 430.282 1.83482 431.427 1.83482H455.97C456.916 1.83482 457.862 1.78523 458.808 1.4381C460.102 1.19015 461.247 0.644664 462.243 0.148768C462.492 -1.40443e-06 462.84 -0.0495911 463.189 -0.0495911C464.533 -0.0495911 466.076 1.14056 467.57 2.82661C470.009 5.65322 472.698 9.86834 473.295 11.0089C473.444 11.356 473.494 11.604 473.494 11.9511C473.494 12.695 473.146 13.4388 472.698 13.8355C472.299 14.1826 471.801 14.4306 471.304 14.4306C470.856 14.4306 470.407 14.2322 469.959 13.8355C467.271 11.3064 464.384 9.32285 461.347 7.98393C458.31 6.64501 455.223 5.95076 452.087 5.95076C450.046 5.95076 448.801 7.63681 448.801 9.62039V20.8772H453.531C454.427 20.8772 455.074 20.1334 455.074 19.2904V17.2076C455.074 15.5216 456.418 14.1826 458.111 14.1826C459.804 14.1826 461.148 15.5216 461.148 17.2076V30.3489C461.148 32.0349 459.754 33.3738 458.111 33.3738C456.468 33.3738 455.074 32.0349 455.074 30.3489V27.8198C455.074 27.0264 454.377 26.2825 453.531 26.2825H448.801V38.6799C448.801 41.0107 450.693 42.8951 453.033 42.8951H458.907C461.944 42.8951 464.682 42.1512 467.321 40.9611C470.059 39.6221 472.548 37.8865 474.938 35.8533C475.386 35.4566 475.884 35.2583 476.332 35.2583C476.879 35.2583 477.477 35.5062 477.825 35.8533C478.224 36.25 478.423 36.7955 478.423 37.3906C478.423 37.8369 478.273 38.3824 478.024 38.8783C477.278 39.9693 474.141 44.234 471.353 46.9614L471.254 47.011Z" fill="#0C0F0E"/>
<path d="M538.313 58.4166C535.276 60.0035 532.339 60.6977 529.352 60.6977C525.369 60.6977 521.635 59.4084 517.652 57.4248C514.765 56.0363 511.728 54.5486 508.293 54.5486C505.455 54.5486 502.319 55.2925 500.029 57.1769C499.68 57.524 499.282 57.6232 498.884 57.6232C497.739 57.6232 496.942 56.6314 496.942 55.4908C496.942 52.6146 503.016 49.4409 505.953 48.3003C495.996 44.8786 487.882 36.498 487.882 25.3403C487.882 10.6122 501.921 0.694244 515.81 0.694244C529.7 0.694244 543.739 10.6122 543.739 25.3403C543.739 37.1426 534.728 45.8208 524.025 48.7962C527.709 50.3831 531.094 52.3667 535.525 52.3667C537.964 52.3667 540.901 51.8212 542.295 50.3335C542.743 49.788 543.241 49.5401 543.789 49.5401C544.536 49.5401 545.332 50.2839 545.332 51.1269C545.332 51.5236 545.183 51.9204 544.884 52.3171C543.142 54.5982 541.2 56.9289 538.362 58.4166H538.313ZM515.313 7.09131C505.704 7.09131 500.676 16.6125 500.676 24.894C500.676 33.1755 506.849 43.4405 516.209 43.4405C525.568 43.4405 530.845 34.0185 530.845 25.6874C530.845 25.0924 530.845 24.3981 530.795 23.803C529.999 15.7695 524.025 7.04172 515.313 7.04172V7.09131Z" fill="#0C0F0E"/>
<path d="M605.272 5.20691C603.48 5.20691 600.642 5.25649 600.642 7.68639V31.1423C600.642 42.5479 589.839 49.5401 579.335 49.5401C566.889 49.5401 556.334 40.6139 556.334 27.8198V7.68639C556.334 5.25649 553.497 5.20691 551.754 5.20691C550.609 5.20691 550.012 4.31429 550.012 3.52086C550.012 2.72742 550.609 1.83481 551.754 1.83481H573.609C574.754 1.83481 575.302 2.72742 575.302 3.52086C575.302 4.31429 574.754 5.20691 573.609 5.20691C571.817 5.20691 569.029 5.25649 569.029 7.68639V27.8694C569.029 35.655 573.609 42.9446 582.073 42.9446C589.69 42.9446 594.967 37.9857 594.967 30.3489V7.68639C594.967 5.25649 592.079 5.20691 590.337 5.20691C589.242 5.20691 588.644 4.31429 588.644 3.52086C588.644 2.72742 589.242 1.83481 590.337 1.83481H605.272C606.367 1.83481 606.965 2.72742 606.965 3.52086C606.965 4.31429 606.367 5.20691 605.272 5.20691Z" fill="#0C0F0E"/>
<path d="M641.515 47.9036H617.419C616.274 47.9036 615.677 47.1102 615.677 46.3167C615.677 45.4241 616.274 44.6307 617.419 44.6307H618.913C621.203 44.6307 623.144 42.6967 623.144 40.4156V7.68639C623.144 5.25649 620.307 5.20691 618.514 5.20691C617.419 5.20691 616.822 4.31429 616.822 3.52086C616.822 2.72742 617.419 1.83481 618.514 1.83481H640.37C641.564 1.83481 642.112 2.72742 642.112 3.52086C642.112 4.31429 641.564 5.20691 640.37 5.20691C638.627 5.20691 635.789 5.25649 635.789 7.68639V40.366C635.789 42.6471 637.731 44.5811 640.071 44.5811H641.465C642.61 44.5811 643.157 45.3745 643.157 46.2671C643.157 47.0606 642.61 47.854 641.465 47.854L641.515 47.9036Z" fill="#0C0F0E"/>
<path d="M695.63 48.0524C694.534 49.5401 693.14 50.2839 691.846 50.2839C691.448 50.2839 691.099 50.2343 690.751 50.0856C688.66 48.8954 686.37 47.9532 683.98 47.9532H655.106C654.16 47.9036 653.712 47.2094 653.712 46.4655C653.712 43.7877 659.287 45.1762 659.287 40.9115V9.42203C659.287 3.76881 651.87 6.59542 651.87 3.52086C651.87 2.72742 652.417 1.83481 653.612 1.83481H677.608C678.703 1.83481 679.3 2.72742 679.3 3.52086C679.3 6.59542 671.883 3.76881 671.883 9.42203V38.5808C671.883 41.0602 673.376 42.6471 675.716 42.6471H682.188C689.506 42.6471 695.381 38.2336 700.907 33.473C701.355 33.0763 701.853 32.9275 702.301 32.9275C703.595 32.9275 704.541 34.0185 704.541 35.3574C704.541 35.8037 704.392 36.2996 704.143 36.6963L695.58 48.0028L695.63 48.0524Z" fill="#0C0F0E"/>
<path d="M772.894 47.9036H748.351C747.206 47.9036 746.658 47.1102 746.658 46.3167C746.658 45.4241 747.206 44.6307 748.351 44.6307C749.247 44.6307 750.043 44.4819 750.491 44.234C751.487 43.6885 751.985 42.6967 751.985 41.5561C751.985 40.6139 751.736 39.523 751.089 38.3328L747.604 31.4894H729.134L724.703 40.118C724.355 40.7131 723.957 41.6553 723.957 42.4487C723.957 43.986 725.251 44.5811 726.595 44.5811C727.74 44.5811 728.288 45.3745 728.288 46.2671C728.288 47.0606 727.74 47.854 726.595 47.854H711.013C709.818 47.854 709.32 47.0606 709.32 46.2671C709.32 45.3745 709.768 44.5811 711.013 44.5811C714.099 44.5811 717.385 41.9528 718.729 39.3742L736.004 4.95896C737.896 1.28932 739.788 0.743835 741.73 0.743835C743.671 0.743835 745.613 1.48768 746.658 3.47127L765.427 39.1758C766.92 42.0024 769.658 44.5811 772.944 44.5811C774.139 44.5811 774.686 45.3745 774.686 46.2671C774.686 47.0606 774.139 47.854 772.944 47.854L772.894 47.9036ZM738.195 13.7363L731.872 26.0842H744.766L738.195 13.7363Z" fill="#0C0F0E"/>
<path d="M68.5524 279.339C45.2535 279.289 22.4027 279.239 0 279.091V41.0107C14.736 44.9282 29.7707 47.4573 44.9548 49.7384C41.1215 113.164 37.2881 176.936 33.4547 241.006C33.5543 241.006 33.6539 241.006 33.7534 241.006C45.1539 223.996 56.7536 207.334 68.5026 190.871V279.339H68.5524Z" fill="#0C0F0E"/>
<path d="M141.237 57.0281C177.23 60.1027 199.086 96.8486 199.135 172.919C199.135 249.287 176.932 283.901 141.237 283.95C106.139 283.95 85.1802 246.56 85.1304 168.059C85.1304 90.5011 103.501 53.904 141.237 57.0281ZM158.512 170.638C156.172 125.561 148.804 96.3031 135.96 81.8229C125.754 96.0552 121.821 125.66 124.111 170.688C126.401 216.856 133.62 246.213 146.564 259.205C156.819 244.675 160.852 215.318 158.512 170.638Z" fill="#0C0F0E"/>
<path d="M217.058 276.661V188.689C229.553 211.649 242.149 234.41 254.744 257.023C267.339 261.437 271.073 256.279 271.073 241.254C269.032 232.278 264.95 222.41 258.478 211.649C252.006 200.541 245.882 190.573 239.41 181.994C232.939 173.118 227.512 162.456 222.434 150.306C217.356 138.157 214.967 126.057 214.967 114.651C214.967 97.3941 220.393 84.7983 231.246 76.616C242.099 68.1858 255.043 64.5162 270.376 65.2104C282.623 65.8055 294.87 67.442 307.117 70.5165V164.786C295.915 140.041 284.664 115.197 273.463 90.154C261.216 89.3606 257.134 93.8237 257.134 106.816C257.482 124.173 270.376 148.025 282.673 165.927C289.145 174.704 294.571 185.465 299.649 198.458C304.727 211.45 307.465 224.096 307.465 236.691C307.465 254.147 296.961 283.95 259.175 283.95C245.235 283.95 231.296 281.62 217.058 276.661Z" fill="#0C0F0E"/>
<path d="M416.392 224.74C418.682 174.258 420.972 123.776 423.262 73.3431C437.202 73.5911 451.042 73.839 464.732 74.0374C454.377 143.562 443.873 213.186 433.319 282.909C416.84 282.909 400.212 282.909 383.435 282.909C372.483 212.69 361.431 142.223 350.329 71.5579C364.766 72.0042 379.104 72.4009 393.342 72.748C396.08 123.429 398.868 174.109 401.606 224.691C406.535 224.691 411.463 224.74 416.392 224.79" fill="#0C0F0E"/>
<path d="M461.894 279.785C471.304 211.153 480.663 142.57 489.873 74.0374C507.297 74.1861 524.423 74.2853 541.349 74.3349C550.161 142.818 558.824 211.351 567.586 279.785C554.94 279.785 542.196 279.785 529.352 279.785C532.438 262.23 535.574 244.626 538.661 227.071C538.462 226.873 538.263 226.674 538.064 226.526C523.129 226.526 507.994 226.526 492.661 226.426C492.561 226.625 492.462 226.823 492.362 226.972C495.548 244.576 498.784 262.181 501.97 279.735C488.728 279.735 475.386 279.735 461.894 279.735V279.785ZM505.007 191.119C508.691 191.218 512.375 191.317 516.009 191.416C519.544 191.317 523.079 191.267 526.613 191.168C523.079 163.299 519.544 135.429 516.009 107.56C515.91 107.56 515.81 107.56 515.711 107.56C512.176 135.38 508.592 163.249 505.007 191.119Z" fill="#0C0F0E"/>
<path d="M652.567 279.785C629.317 279.785 606.417 279.785 584.014 279.785V74.5828C598.8 74.5333 613.785 74.4341 628.969 74.2853C625.136 131.512 621.302 188.689 617.469 245.866C617.568 245.866 617.668 245.866 617.768 245.866C629.218 230.394 640.818 214.922 652.517 199.4V279.785H652.567Z" fill="#0C0F0E"/>
<path d="M725.201 69.5247C761.195 68.6817 783.05 102.353 783.1 176.192C783.1 250.329 760.896 283.95 725.201 284C690.104 284 669.145 249.684 669.095 177.63C669.095 106.419 687.465 70.5165 725.201 69.5743V69.5247ZM742.476 175.944C740.136 133.198 732.818 105.874 719.924 93.3773C709.718 107.709 705.785 135.727 708.076 177.779C710.366 220.972 717.634 248.345 730.528 260.445C740.833 246.51 744.816 218.442 742.476 175.895V175.944Z" fill="#0C0F0E"/>
<path d="M896.906 178.572C899.942 212.095 903.029 245.667 906.066 279.339C891.828 279.339 877.59 279.339 863.302 279.388C862.953 250.924 862.605 222.459 862.256 193.945C856.033 194.094 849.76 194.193 843.537 194.292C844.433 222.757 845.33 251.172 846.275 279.636C832.436 279.636 818.596 279.636 804.806 279.636V69.6239C818.397 67.6899 829.598 66.5989 838.808 66.2022C859.916 65.26 876.594 69.5743 888.492 79.7402C900.391 89.6085 906.464 102.75 906.464 119.461C906.464 142.025 897.005 159.679 877.988 172.126C884.31 174.258 890.683 176.44 897.005 178.572H896.906ZM843.189 87.9225C843.089 113.709 842.94 139.446 842.84 165.233C858.821 159.034 866.637 143.463 866.687 126.354C866.687 106.37 857.825 88.8151 843.189 87.9721V87.9225Z" fill="#0C0F0E"/>
<path d="M928.668 279.587V63.8715C958.289 61.8879 987.512 59.5572 1016.39 56.6314V116.883C999.709 106.519 982.833 96.3527 965.807 86.2364C965.607 86.2364 965.358 86.2364 965.159 86.2364C964.96 109.395 964.711 132.603 964.512 155.761C966.852 155.662 969.142 155.563 971.482 155.464C980.543 152.538 989.553 149.612 998.515 146.537V187.3C989.553 185.019 980.543 182.787 971.482 180.556C969.142 180.754 966.852 180.953 964.512 181.101C964.612 205.648 964.711 230.195 964.861 254.742C965.06 254.841 965.309 254.94 965.508 255.04C982.633 243.237 999.66 231.237 1016.39 218.839V279.438C987.562 279.487 958.289 279.537 928.668 279.587Z" fill="#0C0F0E"/>
<path d="M1034.41 276.314V183.878C1046.31 207.186 1058.01 230.84 1069.51 254.841C1081.01 259.304 1084.39 253.602 1084.39 237.138C1082.55 227.418 1078.87 216.806 1072.94 205.5C1067.02 193.896 1061.39 183.631 1055.37 174.952C1049.39 166.026 1044.32 155.216 1039.49 142.967C1034.71 130.718 1032.47 118.321 1032.47 106.37C1032.47 88.2696 1037.64 74.3349 1047.8 63.8219C1057.96 53.0114 1069.85 46.7135 1083.79 44.3332C1094.9 42.4488 1105.8 41.6057 1116.7 41.6553V148.62C1106.84 122.437 1096.79 96.6007 1086.58 71.062C1075.43 72.4505 1071.7 77.9054 1071.7 92.0384C1072 110.833 1083.84 134.983 1094.85 153.232C1100.67 162.208 1105.55 173.564 1110.03 187.647C1114.56 201.78 1116.95 215.913 1116.95 230.245C1116.95 250.081 1107.59 283.901 1073.54 283.901C1060.69 283.901 1047.75 281.372 1034.36 276.214L1034.41 276.314Z" fill="#0C0F0E"/>
</g>
<defs>
<clipPath id="clip0_60_102">
<rect width="1117" height="284" fill="white"/>
</clipPath>
</defs>
</svg>
