<svg width="38" height="38" viewBox="0 0 38 38" fill="none" xmlns="http://www.w3.org/2000/svg">
<g clip-path="url(#clip0_388_33)">
<path d="M10.3496 35.8419C10.8817 36.1159 11.4309 36.3556 11.9973 36.5783C14.0912 37.3831 16.3568 37.8284 18.7254 37.8284C21.0939 37.8284 23.3595 37.3831 25.4535 36.5783C26.0199 36.3556 26.5691 36.1159 27.1012 35.8419C33.2285 32.7765 37.4508 26.4404 37.4508 19.128C37.4508 11.8157 33.2285 5.49668 27.1012 2.41421C26.5691 2.14022 26.0199 1.90047 25.4535 1.67785C23.3595 0.87298 21.0939 0.427734 18.7254 0.427734C16.3568 0.427734 14.0912 0.87298 11.9973 1.67785C11.4309 1.90047 10.8817 2.14022 10.3496 2.41421C4.22222 5.49668 0 11.8329 0 19.128C0 26.4232 4.22222 32.7594 10.3496 35.8419ZM12.0145 4.74319C12.0145 4.74319 12.0145 3.47595 12.8898 3.13346C14.2972 2.61971 15.7904 2.29434 17.3523 2.15734C17.7986 2.14022 17.9187 2.80809 17.9187 2.80809V17.6553C17.9187 17.6553 17.8157 18.2889 17.3866 18.2889C14.3315 17.6553 12.0145 14.9667 12.0145 11.7301V4.74319ZM25.4535 4.57194V11.7301C25.4535 14.9667 23.1364 17.6724 20.0813 18.2889C19.6522 18.2889 19.5492 17.6553 19.5492 17.6553V2.79096C19.5492 2.79096 19.6522 2.12309 20.1156 2.14022C21.6603 2.26009 23.1536 2.60259 24.5438 3.09921C25.4363 3.42458 25.4535 4.55482 25.4535 4.55482M25.4535 33.7013C25.4535 33.7013 25.4535 34.8315 24.5438 35.1569C23.1364 35.6706 21.6603 35.996 20.1156 36.1159C19.6694 36.133 19.5492 35.4651 19.5492 35.4651V20.8577C19.5492 20.8577 19.6522 20.224 20.0813 20.224C23.1364 20.8577 25.4535 23.5463 25.4535 26.7828V33.6842M17.3695 20.224C17.7986 20.224 17.9015 20.8577 17.9015 20.8577V35.4651C17.9015 35.4651 17.7986 36.133 17.3351 36.1159C15.7733 35.996 14.28 35.6535 12.8726 35.1398C11.9973 34.7973 11.9973 33.53 11.9973 33.53V26.8C11.9973 23.5634 14.3144 20.8577 17.3695 20.2412M35.8202 19.128C35.8202 25.4985 32.3017 31.0469 27.1183 33.9753V26.7828C27.1183 23.4606 25.1789 20.6008 22.364 19.2479C25.1789 17.8951 27.1183 15.0352 27.1183 11.713V4.28082C32.3017 7.20917 35.8202 12.7576 35.8202 19.128ZM10.3496 4.28082V11.713C10.3496 15.0352 12.2891 17.8951 15.1039 19.2479C12.2891 20.6008 10.3496 23.4606 10.3496 26.7828V33.9753C5.16622 31.0469 1.6477 25.4985 1.6477 19.128C1.6477 12.7576 5.16622 7.20917 10.3496 4.28082Z" fill="#B17D4C"/>
<path d="M10.3496 33.9754V26.7829C10.3496 23.4607 12.2891 20.6009 15.1039 19.248C12.2891 17.8951 10.3496 15.0353 10.3496 11.7131V5.41113C10.3325 5.805 10.3153 6.30162 10.2981 6.90099C10.2981 6.90099 10.2295 8.18536 10.1265 10.6C10.1265 10.9082 10.1093 11.2165 10.0922 11.5589C10.0922 11.7302 10.0922 11.9014 10.0922 12.0898C10.0922 12.1754 10.0922 12.2782 10.0922 12.3638C10.0922 12.4494 10.0922 12.5522 10.1093 12.6549C10.1608 13.4256 10.3325 14.2647 10.6757 15.1038C11.019 15.96 11.5167 16.8334 12.2204 17.6211C12.5637 18.0321 12.9756 18.3918 13.4047 18.7514C13.5249 18.837 13.6278 18.9226 13.748 19.0082C13.7995 19.0596 13.8681 19.0939 13.9196 19.1281L14.0054 19.1795L14.0741 19.248L13.9883 19.2822C13.9883 19.2822 13.9025 19.3336 13.851 19.3679C13.7823 19.4021 13.7137 19.4535 13.6622 19.5049C13.5249 19.5905 13.4047 19.6932 13.2674 19.7789C12.7525 20.1727 12.2719 20.618 11.8428 21.1317C10.9675 22.1592 10.2981 23.4436 9.97202 24.8821C9.93769 25.0704 9.90336 25.2417 9.86904 25.4301C9.83471 25.6184 9.81755 25.8068 9.80038 25.9952C9.76606 26.3719 9.76606 26.7658 9.76606 27.1083C9.76606 27.8275 9.76606 28.5639 9.76606 29.3174C9.76606 30.0709 9.76606 30.8244 9.76606 31.6121C9.76606 32.006 9.76606 32.3999 9.76606 32.7937V33.0335V33.0849L9.73173 33.0677C9.73173 33.0677 9.71457 33.0677 9.66308 33.0335C9.66308 33.0335 9.64591 33.0335 9.62875 33.0164H9.61158C9.61158 33.0164 9.61158 33.0164 9.59442 32.9992L9.54293 32.965C9.38846 32.8622 9.19966 32.7252 8.9937 32.5882C8.16985 32.006 6.98557 31.0641 5.6983 29.54C5.6983 29.54 5.6983 29.5229 5.64681 29.4886C5.61249 29.4544 5.561 29.403 5.50951 29.3174C5.38936 29.1633 5.23489 28.9578 5.04609 28.7009C4.84013 28.444 4.65133 28.1187 4.41104 27.7933C4.18792 27.4508 3.96479 27.0569 3.74167 26.663C3.32974 25.8582 2.91782 24.9848 2.67753 24.2313C2.60887 24.0429 2.54022 23.8546 2.48873 23.7005C2.43724 23.5292 2.40291 23.3751 2.35142 23.221C2.2656 22.9298 2.19695 22.7072 2.16262 22.5531C2.16262 22.5531 2.1283 22.4332 2.07681 22.2106C2.04248 22.0907 2.00815 21.9537 1.97382 21.7825C1.95666 21.6968 1.92233 21.5941 1.90517 21.5085C1.90517 21.4057 1.87084 21.303 1.85368 21.1831C1.81935 20.9434 1.76786 20.6865 1.73354 20.3954C1.69921 20.1042 1.68204 19.7789 1.64772 19.4364C1.64772 19.3336 1.64772 19.2309 1.64772 19.111C1.64772 19.1966 1.63055 19.3336 1.63055 19.5049C1.63055 19.5905 1.63055 19.6932 1.63055 19.8131C1.68204 21.1831 1.88801 22.5188 2.24844 23.8032C2.33426 24.0601 2.43724 24.2998 2.52306 24.5224C2.62604 24.8136 2.76335 25.0704 2.86633 25.2759C2.76335 25.0533 2.6432 24.8136 2.52306 24.5224C2.43724 24.2998 2.33426 24.0601 2.24844 23.8032C2.50589 24.6937 2.832 25.5499 3.2096 26.389C3.44989 26.8514 3.58719 27.3309 3.9133 27.8104C3.9133 27.8104 3.94763 27.6905 3.69018 27.3309C5.21773 30.1394 7.5348 32.4855 10.3325 34.061" fill="#B17D4C"/>
<path d="M2.28275 23.7522C1.92231 22.4849 1.69919 21.1492 1.66486 19.7621C1.66486 19.882 1.66486 20.0018 1.66486 20.1388C1.66486 20.4128 1.69919 20.7382 1.71635 21.1321C1.75068 21.5088 1.80217 21.937 1.88799 22.4164C2.00813 22.9131 2.14544 23.3583 2.28275 23.7522ZM2.09395 24.1118C1.76784 23.1014 1.59621 22.2623 1.47606 21.663C1.40741 21.2862 1.37308 20.9951 1.35592 20.8067C1.32159 20.6183 1.32159 20.5156 1.32159 20.5156C1.40741 21.9541 1.78501 23.1528 2.05962 23.9919C2.05962 24.0262 2.09395 24.0776 2.11111 24.1118M2.38573 24.7112C1.54472 22.3993 1.33876 20.3615 1.35592 18.7346C1.35592 18.2894 1.35592 17.8784 1.40741 17.4845C1.44174 17.0906 1.4589 16.731 1.52755 16.3885C1.57904 16.046 1.63053 15.7378 1.68203 15.4466C1.68203 15.4124 1.68203 15.3781 1.69919 15.3439C1.80217 14.8644 1.92231 14.3849 2.05962 13.8883C1.75068 14.8644 1.54472 15.8063 1.42457 16.6796C1.23577 18.0667 1.25294 19.3169 1.33876 20.4128C1.52755 22.2794 1.93948 23.6666 2.3514 24.694M3.2439 26.338C2.84914 25.516 2.5402 24.6427 2.28275 23.7522C2.14544 23.3583 2.00813 22.9131 1.88799 22.4164C1.9738 22.8959 2.11111 23.4097 2.28275 23.9748C2.50587 24.7112 2.81482 25.4989 3.26107 26.338M9.30262 33.4106C9.30262 33.4106 9.35411 33.4448 9.38844 33.462C9.35411 33.4448 9.31979 33.4277 9.30262 33.4106ZM9.47426 33.5133C9.47426 33.5133 9.47426 33.5133 9.49142 33.5133C9.49142 33.5133 9.49142 33.5133 9.47426 33.5133ZM10.4183 33.9928C10.4183 33.9928 10.4183 34.0271 10.4183 34.0442C10.4183 34.0442 10.4183 34.0271 10.4183 34.01M10.4183 34.0956C10.4183 34.0956 10.4183 34.0785 10.4183 34.0613V33.9928C10.4183 33.9928 10.4183 33.9072 10.4183 33.8558C10.4183 33.1708 10.4183 32.3146 10.4183 31.3214C10.4183 30.3795 10.4183 29.3006 10.4183 28.1533C10.4183 27.5881 10.4183 26.9888 10.4183 26.3894C10.4526 25.79 10.5384 25.1907 10.6929 24.6084C11.0018 23.4268 11.6197 22.3137 12.4092 21.4061C12.804 20.9608 13.2502 20.5498 13.7136 20.2073C13.8338 20.1217 13.9539 20.0361 14.0741 19.9676C14.1256 19.9333 14.1942 19.882 14.2457 19.8477L14.4517 19.7278C14.7435 19.5566 15.0524 19.4025 15.3442 19.2484C15.0181 19.0771 14.6748 18.9059 14.383 18.7004C14.1256 18.5462 13.9024 18.3579 13.6793 18.2037C13.2502 17.8441 12.8898 17.4845 12.598 17.142C11.9973 16.4399 11.6712 15.772 11.4995 15.3268C11.4995 15.3268 11.4824 15.2925 11.4481 15.224C11.4137 15.1555 11.3622 15.0528 11.3108 14.9158C11.1906 14.6418 11.0361 14.2479 10.916 13.7513C10.7787 13.2547 10.6929 12.6724 10.6585 12.0388C10.6414 11.7306 10.6585 11.3881 10.6585 11.0284C10.6585 10.6859 10.6585 10.3263 10.6585 9.98382C10.6414 7.17535 10.5899 4.34975 10.4697 4.28125C10.4697 4.28125 10.4354 4.69225 10.4011 5.41149V11.7134C10.4011 15.0356 12.3406 17.8955 15.1554 19.2484C12.3406 20.6012 10.4011 23.4611 10.4011 26.7833V33.9757C7.60343 32.4002 5.30352 30.0712 3.75881 27.2456C3.69016 27.16 3.6215 27.0573 3.53568 26.9374C3.44987 26.8175 3.38121 26.6634 3.27823 26.4922C3.19241 26.3209 3.07227 26.1325 2.96929 25.927C2.86631 25.7044 2.76333 25.4647 2.62602 25.2078C2.55736 25.0537 2.48871 24.8824 2.42006 24.7112C2.48871 24.8995 2.55736 25.0879 2.62602 25.2763C2.62602 25.2763 2.57453 25.1564 2.45438 24.9509C2.36857 24.7625 2.24842 24.4714 2.11111 24.1118C2.19693 24.3687 2.28275 24.6255 2.38573 24.8995C2.9178 26.2695 3.75881 27.9135 5.0804 29.5918C5.18338 29.7116 5.28636 29.8486 5.38934 29.9685C5.44083 30.0199 5.49232 30.0712 5.52665 30.1226C5.76694 30.3966 5.99007 30.6192 6.19603 30.8076C6.40199 31.0131 6.59079 31.1844 6.74526 31.3214C7.0542 31.5782 7.20867 31.6981 7.20867 31.6981C7.20867 31.6981 7.03704 31.5611 6.74526 31.3214C6.60795 31.1844 6.41915 31.0131 6.19603 30.8076C5.99007 30.6192 5.76694 30.3795 5.52665 30.1226C5.52665 30.1226 5.44083 30.0199 5.38934 29.9685C5.99007 30.6706 6.67661 31.3899 7.48329 32.0577C7.96387 32.4516 8.46161 32.8455 8.99368 33.188C9.04517 33.2222 9.11382 33.2736 9.16531 33.3078H9.14815C9.14815 33.3078 9.19964 33.3421 9.31979 33.4277C9.42277 33.4962 9.61156 33.599 9.83469 33.736C9.93767 33.8045 10.075 33.873 10.1951 33.9586C10.2638 33.9928 10.3324 34.0442 10.4011 34.0785" fill="#B17D4C"/>
<path d="M1.69917 19.0598C1.69917 18.957 1.71633 18.9056 1.71633 18.9056C1.71633 18.3576 1.71633 17.8268 1.75066 17.2959C1.71633 17.5356 1.69917 17.7925 1.68201 18.0323C1.68201 18.3919 1.68201 18.7344 1.68201 19.0598" fill="#B17D4C"/>
<path d="M4.15355 10.0013C4.15355 10.0013 4.20504 9.91563 4.23937 9.86426C4.20504 9.91563 4.18788 9.94988 4.15355 10.0013ZM3.84461 10.515C3.94759 10.3438 4.05057 10.1725 4.17072 9.98413C4.17072 10.0013 4.13639 10.0355 4.13639 10.0526C4.06773 10.1554 3.99908 10.2581 3.94759 10.3609C3.91326 10.4123 3.8961 10.4636 3.86177 10.515M2.67749 12.3645C2.67749 12.3645 2.72898 12.2446 2.76331 12.1932C2.76331 12.1932 2.74614 12.2275 2.71182 12.3131C2.71182 12.3302 2.71182 12.3474 2.69465 12.3816M1.7335 15.3613C1.78499 15.1045 1.85364 14.8818 1.90513 14.6592C2.02528 14.1797 2.16259 13.7858 2.26557 13.4605C2.36855 13.1351 2.48869 12.8954 2.55735 12.707C2.60884 12.5529 2.66033 12.4501 2.69465 12.3645C2.47153 12.8782 2.28273 13.392 2.11109 13.9057C1.95662 14.4023 1.83648 14.8818 1.75066 15.3613M1.68201 18.0328C1.68201 17.7931 1.71633 17.5362 1.75066 17.2964C1.88797 15.3956 2.36855 13.6146 3.05509 12.0905C3.15807 11.8507 3.27821 11.611 3.38119 11.3712C3.50134 11.1486 3.62148 10.926 3.74163 10.7034C3.77595 10.652 3.81028 10.5835 3.84461 10.5321C3.82745 10.5664 3.79312 10.6006 3.77595 10.652C3.62148 10.9431 3.44985 11.2171 3.31254 11.5082C3.17523 11.7994 3.05509 12.0734 2.91778 12.3474C2.69465 12.9125 2.47153 13.4605 2.33422 14.0085C2.16258 14.5393 2.0596 15.0702 1.95662 15.5668C1.90513 15.8237 1.87081 16.0634 1.83648 16.3032C1.80215 16.5429 1.75066 16.7656 1.75066 17.0053C1.71633 17.3821 1.69917 17.7246 1.68201 18.0671" fill="#B17D4C"/>
<path d="M9.68019 4.69228C9.78317 4.62378 9.90331 4.57241 10.0063 4.50391C9.9548 4.53816 9.88615 4.57241 9.80033 4.60666C9.80033 4.60666 9.76601 4.60666 9.74884 4.62378C9.71451 4.6409 9.69735 4.65803 9.66302 4.67515" fill="#B17D4C"/>
<path d="M4.23938 9.86422C4.80578 8.97373 5.50948 8.10036 6.31616 7.27837C7.26016 6.31938 8.39295 5.42889 9.68021 4.6754C9.71454 4.65827 9.7317 4.64115 9.76603 4.62402C9.68021 4.6754 9.57723 4.72677 9.43992 4.79527C9.30261 4.8809 9.14814 4.98364 8.95934 5.10352C8.23848 5.56589 7.22583 6.31938 6.12737 7.44962C6.05871 7.51812 5.99006 7.58662 5.9214 7.65512C5.85275 7.72362 5.7841 7.80924 5.71544 7.89487C5.57813 8.04899 5.44083 8.20311 5.30352 8.37436C5.0289 8.69973 4.77145 9.07648 4.49683 9.45323C4.41101 9.59022 4.3252 9.72722 4.23938 9.86422Z" fill="#B17D4C"/>
<path d="M10.0063 4.50352L10.1093 4.45215C10.075 4.46927 10.0407 4.4864 10.0063 4.50352Z" fill="#B17D4C"/>
<path d="M3.17527 25.7727C3.10661 25.6186 3.02079 25.4473 2.91781 25.2247C2.81483 25.0021 2.69469 24.7623 2.57454 24.4712C2.67752 24.7623 2.81483 25.0192 2.91781 25.2247C3.02079 25.4473 3.10661 25.6186 3.17527 25.7727Z" fill="#B17D4C"/>
<path d="M1.71635 15.4463C1.71635 15.4463 1.71635 15.395 1.71635 15.3607C1.81933 14.8812 1.93948 14.4017 2.07679 13.9051C2.21409 13.4256 2.38573 12.9632 2.59169 12.4837C2.40289 12.9632 2.23126 13.4427 2.07679 13.9051C1.92231 14.4017 1.80217 14.8812 1.71635 15.3607C1.71635 15.395 1.71635 15.4121 1.71635 15.4463Z" fill="#B17D4C"/>
<path d="M2.31708 12.792C2.31708 12.792 2.31708 12.7578 2.33425 12.7406C2.33425 12.7406 2.33425 12.7749 2.31708 12.792ZM1.27011 17.039C1.42458 15.6005 1.78501 14.162 2.33425 12.8091C1.78501 14.162 1.44174 15.6005 1.27011 17.039ZM5.52666 30.1223C5.52666 30.1223 5.44084 30.0196 5.38935 29.9682C5.30353 29.8826 5.21771 29.797 5.1319 29.6942C5.01175 29.5401 4.87444 29.3689 4.73714 29.1976C4.44536 28.8551 4.1879 28.4612 3.89612 28.0502C3.34689 27.194 2.7805 26.2179 2.33425 25.0705C1.88799 23.9232 1.52756 22.6559 1.3216 21.2859C1.20145 20.5153 1.14996 19.7276 1.14996 18.9227C1.14996 19.7276 1.20145 20.5324 1.3216 21.2859C1.52756 22.6559 1.88799 23.9232 2.33425 25.0705C2.7805 26.2179 3.34689 27.194 3.89612 28.0502C4.1879 28.4612 4.44536 28.8551 4.73714 29.1976C4.87444 29.3689 5.01175 29.5401 5.1319 29.6942C5.21771 29.797 5.30353 29.8826 5.38935 29.9682C5.44084 30.0196 5.49233 30.071 5.52666 30.1223ZM6.2132 30.8245C6.00724 30.6361 5.78411 30.3963 5.54382 30.1395C5.78411 30.4135 6.00724 30.6361 6.2132 30.8245ZM6.74527 31.3211C6.60796 31.1841 6.41916 31.0128 6.19603 30.8073C6.402 31.0128 6.59079 31.1841 6.74527 31.3211ZM7.22584 31.715C7.22584 31.715 7.05421 31.578 6.76243 31.3382C7.07137 31.5951 7.22584 31.715 7.22584 31.715Z" fill="#B17D4C"/>
<path d="M27.1012 33.9755C32.0099 31.2013 35.4083 26.0981 35.7687 20.1729C35.7687 20.3099 35.7344 20.464 35.7173 20.6181C35.7001 20.7723 35.6658 20.9435 35.6486 21.1319C35.6314 21.3202 35.5971 21.5086 35.5456 21.7141C35.5456 21.7141 35.5113 21.8854 35.4255 22.245C35.3568 22.5875 35.2024 23.1012 34.9964 23.752C34.8762 24.0773 34.7561 24.437 34.6016 24.8308C34.5158 25.0192 34.43 25.2247 34.327 25.4473C34.2755 25.5501 34.224 25.6528 34.1897 25.7727C34.1382 25.8755 34.0696 25.9953 34.0181 26.0981C33.5718 27.0057 32.9539 27.9818 32.1644 29.0093C31.3577 30.0368 30.3622 31.0814 29.1093 32.0404C28.9548 32.1603 28.8004 32.2801 28.6287 32.4C28.4571 32.5199 28.2855 32.6226 28.131 32.7425C27.6676 33.0508 27.7362 32.9994 27.6504 33.0508H27.6332V33.0679V33.0336V32.9994V32.8624C27.6332 32.4 27.6332 31.9376 27.6332 31.4753C27.6332 30.5334 27.6332 29.5573 27.6504 28.5469C27.6504 28.0332 27.6504 27.5366 27.6504 27.0057C27.6504 26.7488 27.6504 26.4577 27.6332 26.1837C27.5989 25.9097 27.5818 25.6186 27.5303 25.3446C27.1698 23.0841 25.8139 20.8408 23.6856 19.4365C23.6341 19.4023 23.5827 19.368 23.5483 19.3509C23.514 19.3338 23.4453 19.2824 23.4453 19.2824C23.4453 19.2824 23.4453 19.2824 23.3767 19.2481C23.3767 19.2481 23.3939 19.2481 23.411 19.2139H23.4282C23.4282 19.2139 23.5312 19.1283 23.5998 19.094C23.7715 18.9913 23.9431 18.8543 24.1319 18.7173C24.8699 18.135 25.8139 17.2103 26.5176 15.8403C26.5176 15.8403 26.5691 15.7376 26.6549 15.5663C26.7407 15.3951 26.8437 15.1211 26.981 14.7957C27.2042 14.1449 27.4444 13.2202 27.4788 12.2612C27.4788 11.7646 27.4788 11.3022 27.4788 10.8398C27.4788 10.3775 27.4616 9.93223 27.4444 9.52124C27.4273 8.69925 27.393 8.0485 27.3758 7.72313C27.3758 7.72313 27.3415 7.22651 27.2728 6.28465C27.2556 5.82228 27.2213 5.25716 27.187 4.58929V4.45229V4.38379C27.187 4.38379 27.1355 4.45229 27.1527 4.58929C27.1527 4.62354 27.1527 4.65779 27.1527 4.69204V9.04174C27.1527 9.28149 27.187 9.50411 27.2042 9.70961C27.2042 9.50411 27.1698 9.28149 27.1527 9.04174V11.6961C27.1527 11.6961 27.1527 11.7988 27.1527 11.8673C27.1527 12.3297 26.9295 12.8263 26.8437 13.3401C26.8437 13.3401 27.0669 13.2887 27.0669 13.2031C27.0669 13.1175 27.0669 12.9976 27.0669 12.8263C26.6893 15.6519 24.8699 18.0323 22.3984 19.231C25.2132 20.5839 27.1527 23.4437 27.1527 26.7659V33.9584" fill="#B17D4C"/>
<path d="M27.1012 9.05869V4.70898C27.1012 4.86311 27.084 5.05148 27.0669 5.29123C27.0669 5.56523 27.0497 5.8906 27.0325 6.26734C27.0325 6.64409 27.0325 7.08934 27.0154 7.56883C27.0497 8.11683 27.0669 8.59632 27.1012 9.04157M27.1012 11.8843C27.1012 11.8843 27.1012 11.7815 27.1012 11.713V9.05869C27.0669 8.61345 27.0497 8.13395 27.0154 7.58596C27.0154 8.06545 27.0154 8.59632 27.0154 9.16144C27.0154 9.74368 27.0325 10.3944 27.0669 11.0794C27.0669 11.3363 27.084 11.5932 27.084 11.8672M22.5529 19.4363C22.5529 19.4363 22.6558 19.4877 22.7073 19.522C22.6558 19.4877 22.5872 19.4706 22.5529 19.4363ZM22.879 19.6076C22.879 19.6076 22.9476 19.6418 22.9648 19.659C23.0506 19.7103 23.1364 19.7617 23.2222 19.8131C23.0849 19.7275 22.9648 19.659 22.8618 19.6076M23.3424 19.8816C23.3424 19.8816 23.3424 19.8816 23.3595 19.8816C23.3595 19.8816 23.3595 19.8816 23.3767 19.8816C23.3767 19.8816 23.3424 19.8645 23.3424 19.8473M23.5483 20.0357C23.5483 20.0357 23.6685 20.1213 23.72 20.1556C23.6513 20.1213 23.5998 20.07 23.5483 20.0357ZM27.0497 34.1294C27.0497 34.1294 27.1012 34.1123 27.1527 34.0609C27.4445 33.8897 27.7362 33.7184 28.028 33.5472C28.3026 33.376 28.5086 33.2218 28.7489 33.0677C30.5854 31.8176 31.7697 30.4476 32.4047 29.7969C32.4047 29.7969 32.5077 29.6599 32.6965 29.403C32.7823 29.2831 32.9025 29.129 33.0398 28.9577C33.1599 28.7694 33.2972 28.5639 33.4345 28.3412C34.0009 27.4336 34.6703 26.1664 35.1337 24.8135C35.6143 23.4607 35.8546 22.0393 35.9232 20.9604C35.9404 20.6865 35.9747 20.4467 35.9747 20.2241C35.9747 20.0015 35.9747 19.8131 35.9747 19.6418C35.9747 19.3165 35.9404 19.1281 35.9061 19.111C35.9061 19.111 35.8717 19.3678 35.8374 19.796C35.8374 19.8987 35.8203 20.0186 35.8031 20.1556C35.4427 26.0808 32.0271 31.184 27.1355 33.9582V26.7658C27.1355 23.4435 25.196 20.5837 22.3812 19.2308C24.8699 18.0321 26.6721 15.6518 27.0497 12.8262C27.0497 12.7919 27.0497 12.7748 27.0497 12.7405C27.084 12.2953 27.0154 11.576 26.9467 10.4287C26.9467 10.2574 26.9467 10.0862 26.9296 9.91493C26.9296 10.1033 26.9296 10.2917 26.9296 10.4972C26.9296 10.4972 26.8781 10.0862 26.8437 9.36694C26.8437 9.45256 26.8437 9.53819 26.8437 9.62381C26.8437 10.2746 26.8781 11.0109 26.8952 11.8158C26.8952 12.6035 26.7923 13.4769 26.5176 14.3674C26.3803 14.7955 26.2087 15.2236 25.9856 15.6346C25.9512 15.7203 25.8997 15.7887 25.8654 15.8572C25.7281 16.097 25.608 16.3196 25.4707 16.5251C25.2647 16.8334 25.0931 17.0731 24.9386 17.2615C25.0931 17.0731 25.2819 16.8334 25.4707 16.5251C25.5908 16.3367 25.7281 16.1141 25.8654 15.8572C25.8997 15.7887 25.9512 15.7031 25.9856 15.6346C25.7453 16.1141 25.4363 16.5765 25.0759 17.0217C24.7155 17.4327 24.3379 17.8437 23.8745 18.2205C23.7715 18.3232 23.6342 18.3917 23.514 18.4945C23.3939 18.5801 23.2737 18.6657 23.1364 18.7513C22.879 18.9226 22.6215 19.0596 22.3469 19.1966C22.3126 19.1966 22.2782 19.2308 22.2096 19.2651C22.3297 19.3336 22.5185 19.4192 22.7588 19.5562C22.879 19.6247 23.0163 19.6932 23.1536 19.7788C23.2737 19.8473 23.411 19.933 23.5483 20.0357C24.0976 20.4296 24.767 20.9947 25.3677 21.7824C25.6595 22.1763 25.9684 22.6216 26.2087 23.1182C26.449 23.6148 26.6721 24.1628 26.8094 24.7279C26.9639 25.3102 27.0497 25.9095 27.0669 26.5431C27.0669 27.1768 27.0669 27.8104 27.0669 28.4611C27.0669 29.7455 27.0669 31.047 27.0497 32.2971C27.0497 32.6225 27.0497 32.9478 27.0497 33.2561C27.0497 33.4445 27.0497 33.6157 27.0497 33.7869C27.0497 33.9068 27.0154 34.1294 27.084 34.1294" fill="#B17D4C"/>
<path d="M35.8031 18.426C35.8031 18.2034 35.8031 17.8951 35.7687 17.5184C35.7687 17.2958 35.7344 17.0731 35.7173 16.7991C35.6829 16.5423 35.6314 16.2512 35.5971 15.96C35.5628 15.6518 35.477 15.3264 35.4083 14.9839C35.374 14.8127 35.3397 14.6414 35.2882 14.453C35.2367 14.2818 35.1852 14.0934 35.1165 13.905C34.8248 12.9803 34.43 11.9528 33.8464 10.9082C34.3785 11.8843 34.8419 12.9632 35.168 14.1448C35.5456 15.4463 35.7687 16.8505 35.7859 18.3404C35.7859 18.3575 35.7859 18.3918 35.7859 18.4089" fill="#B17D4C"/>
<path d="M28.6802 5.29147C28.4399 5.12023 28.1996 4.94898 27.9422 4.79485C27.9079 4.77773 27.8735 4.76061 27.8392 4.74348C27.6676 4.65786 27.5131 4.55511 27.3586 4.46948C27.29 4.43523 27.2213 4.38386 27.1355 4.34961C27.1355 4.34961 27.1355 4.34961 27.1355 4.36673C27.1355 4.36673 27.1527 4.36673 27.1698 4.36673C27.2042 4.36673 27.2385 4.40098 27.2728 4.41811C27.3071 4.45236 27.3243 4.46948 27.3243 4.46948C27.5646 4.60648 27.822 4.72636 28.0795 4.88048C28.2855 5.01748 28.4743 5.13735 28.6631 5.25723" fill="#B17D4C"/>
<path d="M30.8257 6.62763C30.7055 6.50776 30.5854 6.40501 30.4652 6.30226C30.5854 6.42214 30.7227 6.52489 30.8257 6.62763ZM32.2674 8.18599C32.0271 7.87775 31.7697 7.58663 31.5122 7.31263C31.3234 7.10713 31.1346 6.91876 30.9286 6.73038C31.2547 7.07288 31.5465 7.34688 31.7525 7.58662C31.9585 7.82637 32.1301 8.03187 32.2502 8.18599M32.6278 8.66549C32.6278 8.66549 32.6107 8.63124 32.5592 8.56274C32.5077 8.49424 32.4219 8.37437 32.2846 8.22024C32.2846 8.22024 32.2846 8.20312 32.2674 8.18599C32.3875 8.34012 32.5077 8.49424 32.6278 8.66549ZM26.8266 9.36761C26.7579 6.91876 26.7064 5.65152 26.7064 5.65152C26.7064 7.19275 26.7579 8.51137 26.8266 9.36761ZM26.8952 9.9156C26.8781 8.80249 26.8609 7.775 26.8437 6.83313C26.8437 6.28514 26.8437 5.77139 26.8266 5.27477C26.8266 4.89803 26.8266 4.53841 26.8266 4.19591C26.8266 4.11028 26.8266 4.00754 26.8266 3.92191V3.78491V3.75066H26.8437L26.8952 3.80204C27.0325 3.88766 27.1698 3.97329 27.3071 4.05891C27.5818 4.23016 27.8564 4.38428 28.1138 4.53841L28.2168 4.58978L28.2855 4.64115L28.4056 4.72678C28.4056 4.72678 28.5772 4.84665 28.6459 4.89803C28.8004 5.00078 28.972 5.12065 29.1093 5.2234C29.2638 5.32615 29.4011 5.44602 29.5212 5.54877C29.8645 5.80564 30.1563 6.06252 30.4309 6.30226C30.551 6.40501 30.6712 6.52489 30.7913 6.62763C30.8085 6.64476 30.8428 6.66188 30.86 6.69613L30.8943 6.73038C31.0831 6.91876 31.2719 7.10713 31.4779 7.31263C30.757 6.54201 30.019 5.87414 29.2981 5.32615C29.0235 5.10352 28.7317 4.93228 28.4571 4.72678C28.3884 4.6754 28.3198 4.64115 28.2511 4.58978C28.234 4.57266 28.1653 4.53841 28.1138 4.50416L27.9594 4.40141C27.7534 4.28153 27.5474 4.14453 27.3415 4.02466C27.1355 3.90479 26.9295 3.76779 26.7407 3.66504C26.7407 3.90479 26.7407 4.14453 26.7407 4.38428C26.7407 4.77815 26.7407 5.17202 26.7407 5.54877C26.7751 7.39825 26.8094 8.81961 26.8609 9.9156M33.8464 10.9088C33.7263 10.7033 33.6061 10.4978 33.486 10.2923C32.1129 8.03187 30.4137 6.47351 28.9377 5.4289C28.5944 5.20627 28.2683 4.98365 27.9422 4.79528C28.1825 4.9494 28.4399 5.12065 28.6802 5.2919C28.7489 5.32615 28.8004 5.37752 28.869 5.41177C29.1265 5.58302 29.3496 5.77139 29.6071 5.94264C29.8473 6.11389 30.0705 6.31939 30.2936 6.50776C30.7398 6.88451 31.1346 7.2955 31.5465 7.68937C31.907 8.11749 32.2846 8.51137 32.5935 8.95661C33.0912 9.60736 33.5203 10.2581 33.8636 10.9088" fill="#B17D4C"/>
<path d="M35.3053 13.8879C34.8248 12.2781 34.1211 10.7883 33.2629 9.50391C34.1211 10.7883 34.8248 12.261 35.3053 13.8879ZM35.9404 18.2889C35.9404 16.7648 35.7001 15.275 35.3053 13.905C35.7173 15.2921 35.9404 16.782 35.9404 18.2889ZM35.9404 18.3917C35.9404 18.3917 35.9404 18.3232 35.9404 18.2889C35.9404 18.3232 35.9404 18.3574 35.9404 18.3917ZM35.9232 19.1281C35.9232 18.8883 35.9404 18.6314 35.9404 18.3917C35.9404 18.6314 35.9404 18.8883 35.9232 19.1281Z" fill="#B17D4C"/>
<path d="M27.1527 9.72646C27.1527 9.52096 27.1184 9.29834 27.1012 9.05859C27.1012 9.29834 27.1355 9.52096 27.1527 9.72646Z" fill="#B17D4C"/>
<path d="M27.2728 4.09319C27.2728 4.09319 27.1012 3.99044 27.0154 3.95619C27.1012 4.00757 27.187 4.05894 27.2728 4.09319ZM26.9124 5.20631C26.9124 4.81244 26.8952 4.41856 26.8781 4.02469C26.8781 4.43569 26.8952 4.82956 26.9124 5.20631ZM29.1265 5.24056C28.9892 5.15493 28.8519 5.06931 28.7317 4.96656C28.869 5.05218 29.0063 5.13781 29.1265 5.24056ZM29.5041 5.53168C29.3839 5.42893 29.2466 5.34331 29.1265 5.24056C29.2466 5.32618 29.3839 5.42893 29.5041 5.53168ZM26.9467 5.99405C26.9467 5.73718 26.9295 5.4803 26.9124 5.20631C26.9124 5.4803 26.9295 5.73718 26.9467 5.99405ZM26.9467 6.0283C26.9467 6.0283 26.9467 6.01117 26.9467 5.99405C26.9467 5.99405 26.9467 6.01117 26.9467 6.0283ZM27.0154 7.58666C27.0154 7.53528 27.0154 7.48391 27.0154 7.43254C27.0154 7.43254 27.0154 7.53528 27.0154 7.58666ZM33.2629 9.50464C33.2629 9.50464 33.2285 9.47039 33.2285 9.43614C32.6965 8.6484 32.1301 7.92916 31.5122 7.29554C31.3234 7.09004 31.1346 6.90167 30.9286 6.71329C30.8943 6.67904 30.86 6.64479 30.8257 6.61054C30.7055 6.49067 30.5854 6.38792 30.4652 6.28517C30.4137 6.2338 30.3622 6.18242 30.2936 6.14817C30.3451 6.19955 30.3966 6.2338 30.4652 6.28517C30.5854 6.38792 30.7055 6.50779 30.8257 6.61054C30.86 6.64479 30.8943 6.67904 30.9286 6.71329C31.1174 6.90167 31.3062 7.09004 31.5122 7.29554C32.1129 7.92916 32.6965 8.6484 33.2285 9.43614C33.2285 9.45327 33.2629 9.47039 33.2629 9.50464Z" fill="#B17D4C"/>
<path d="M28.6802 4.67544L28.4571 4.52132L28.337 4.43569L28.131 4.31582C27.8564 4.14457 27.5818 3.99045 27.3072 3.8192L26.8952 3.57945L26.6893 3.45958C26.6893 3.45958 26.6206 3.4082 26.6035 3.4082C26.6206 3.4082 26.6549 3.44245 26.6893 3.45958L26.8952 3.57945L27.3072 3.8192C27.5818 3.99045 27.8564 4.14457 28.131 4.31582L28.337 4.43569L28.4571 4.52132L28.6802 4.67544ZM32.3361 8.01478C31.4092 6.86742 30.3108 5.8228 29.1265 4.96656C30.3108 5.8228 31.4092 6.85029 32.3361 8.01478ZM32.3876 8.08328C32.3876 8.08328 32.3532 8.03191 32.3361 8.01478C32.3361 8.01478 32.3704 8.06616 32.3876 8.08328ZM26.7408 10.241C26.7064 9.04227 26.6721 7.75791 26.6378 6.40505C26.6378 6.06255 26.6378 5.73718 26.6206 5.39468C26.6206 5.73718 26.6206 6.07968 26.6378 6.40505C26.6721 7.74079 26.7064 9.02515 26.7408 10.241ZM34.6017 11.748C34.0524 10.4636 33.2972 9.21352 32.4047 8.08328C33.3144 9.21352 34.0524 10.4636 34.6017 11.748ZM26.7923 11.9021C26.7923 11.3884 26.7579 10.8061 26.7408 10.2239C26.7408 10.8061 26.7923 11.3712 26.7923 11.9021ZM26.7923 12.1076C26.7923 12.1076 26.7923 12.0049 26.7923 11.9535C26.7923 11.9535 26.7923 11.9192 26.7923 11.9021C26.7923 11.9021 26.7923 11.9364 26.7923 11.9535C26.7923 12.0049 26.7923 12.0562 26.7923 12.1076ZM25.4535 16.5258C25.5736 16.3375 25.711 16.1148 25.8483 15.858C25.8826 15.7895 25.9341 15.7038 25.9684 15.6353C26.2602 15.036 26.5176 14.3167 26.6893 13.4776C26.7579 13.0495 26.8094 12.5871 26.8094 12.1076C26.8094 12.5871 26.7408 13.0324 26.6893 13.4776C26.5348 14.3167 26.2602 15.0531 25.9684 15.6353C25.9341 15.721 25.8826 15.7895 25.8483 15.858C25.711 16.0977 25.5908 16.3203 25.4535 16.5258ZM24.9214 17.2793C25.0759 17.0909 25.2647 16.8512 25.4535 16.5429C25.2475 16.8512 25.0759 17.0909 24.9214 17.2793Z" fill="#B17D4C"/>
<path d="M17.3695 36.1167C17.7985 36.1167 17.9015 35.4659 17.9015 35.4659V20.8584C17.9015 20.8584 17.8844 20.7386 17.8157 20.6016C17.8329 20.6701 17.85 20.7386 17.8672 20.8071C17.8672 20.9783 17.85 21.2009 17.85 21.4236C17.85 21.4236 17.6784 23.0504 17.5411 26.013C17.4724 27.5029 17.4038 29.3181 17.3695 31.4245C17.3695 32.4862 17.3523 33.6164 17.3523 34.8152C17.3523 34.9693 17.3523 35.1234 17.3523 35.2775V35.3974C17.3523 35.3974 17.3523 35.4317 17.3523 35.4488C17.3523 35.4659 17.3523 35.483 17.3351 35.5173C17.3351 35.5173 17.3351 35.5515 17.318 35.5687H17.1292C16.5113 35.5173 15.8934 35.4317 15.2412 35.3118L15.0696 35.2775C15.0696 35.2775 14.7949 35.2262 14.2457 35.072C13.9711 35.0035 13.6278 34.9008 13.2331 34.7638C13.1816 34.7638 13.1301 34.7295 13.0786 34.7124C13.0271 34.7124 13.0271 34.6782 12.9928 34.6782C12.9584 34.6782 12.9413 34.6439 12.9069 34.6268C12.8726 34.6097 12.8555 34.5754 12.8211 34.5583C12.7181 34.4384 12.598 34.2672 12.5465 34.0446C12.5465 34.0446 12.5465 33.9932 12.5122 33.9076C12.495 33.8219 12.4607 33.6849 12.4435 33.5479C12.4435 33.1883 12.4092 32.6917 12.392 32.1779C12.3577 31.1333 12.3062 30.0031 12.2547 29.6606C12.2547 29.6606 12.2204 29.3866 12.1518 28.8557C12.1174 28.5475 12.0831 28.1707 12.0488 27.7255C12.0488 27.7769 12.0316 27.8625 12.0144 27.9824V30.4141V31.9553C12.0316 32.2293 11.8943 32.5547 11.9286 32.8629C11.9286 32.8629 12.0659 32.7431 12.0144 32.5376V33.5822C12.0144 33.5822 12.0144 34.8494 12.8898 35.1919C14.2972 35.7057 15.7904 36.031 17.3523 36.168C17.3523 36.168 17.3523 36.168 17.3695 36.168" fill="#B17D4C"/>
<path d="M12.0145 30.3798V27.9481C11.9801 28.2735 11.9286 28.7872 11.9286 29.5579C11.963 29.8661 11.9801 30.1401 12.0145 30.3798ZM11.7227 30.5511C11.654 29.1811 11.6025 28.4619 11.6025 28.4619C11.6025 29.3181 11.654 30.0545 11.7227 30.5511ZM11.8085 30.8765C11.7742 29.5065 11.7398 28.3934 11.7055 27.4857C11.7055 27.246 11.7055 27.0063 11.7055 26.8008C11.7055 26.5781 11.7055 26.3726 11.7055 26.1671C11.7227 25.9788 11.757 25.7904 11.7742 25.6191C11.7742 25.5506 11.7913 25.4821 11.8085 25.4308C11.8428 25.191 11.8943 24.9513 11.963 24.7115C11.7913 25.2766 11.6884 25.8246 11.6712 26.3384C11.654 26.7494 11.6712 27.109 11.6712 27.4515C11.6712 27.794 11.6712 28.1194 11.6884 28.4105C11.7227 29.4551 11.757 30.2428 11.8085 30.8593M12.0145 31.9211V30.3798C11.9801 30.1401 11.963 29.8661 11.9286 29.5579C11.9286 30.1915 11.9286 30.9621 12.0145 31.9211ZM17.3695 36.168C17.3695 36.168 17.421 36.168 17.4553 36.168C17.6784 36.1338 17.8157 35.9283 17.9015 35.7399C17.9359 35.6372 17.9702 35.5344 17.9702 35.4317C17.9702 35.3289 17.9702 35.2262 17.9702 35.1234C17.9702 31.7841 18.0045 27.52 18.1933 26.3041C18.1933 26.3041 18.1933 24.7458 18.1933 23.1703C18.1933 22.3825 18.159 21.5948 18.1418 20.9954C18.1418 20.9441 18.1418 20.9098 18.1418 20.8584C18.1418 20.8071 18.1247 20.7557 18.1075 20.7214C18.0903 20.6529 18.056 20.5844 18.0217 20.5159C17.953 20.3961 17.8672 20.2762 17.7814 20.2077C17.6784 20.1392 17.5754 20.1221 17.5068 20.1221C17.4381 20.1221 17.4038 20.1392 17.4038 20.1563C17.4038 20.1563 17.4381 20.1563 17.5068 20.1906C17.5754 20.2077 17.6613 20.2762 17.7299 20.3789C17.7642 20.4474 17.8157 20.5159 17.8329 20.6016C17.8844 20.7386 17.9187 20.8584 17.9187 20.8584V35.4659C17.9187 35.4659 17.8157 36.1167 17.3866 36.1167C17.3866 36.1167 17.3866 36.1167 17.3695 36.1167C15.8076 35.9968 14.3144 35.6543 12.907 35.1405C12.0316 34.7981 12.0316 33.5308 12.0316 33.5308V32.4862C11.9801 32.2464 11.9115 31.8355 11.86 31.1505C11.86 31.0648 11.86 30.9621 11.8428 30.8765C11.8428 30.9792 11.8428 31.082 11.8428 31.1847C11.8428 31.1847 11.7913 30.945 11.757 30.5511C11.757 30.671 11.757 30.808 11.7742 30.945C11.7913 31.356 11.8085 31.8012 11.8257 32.315C11.8257 32.5718 11.8428 32.8287 11.86 33.1027C11.86 33.2397 11.86 33.3767 11.86 33.5137C11.86 33.6849 11.8943 33.8219 11.9286 33.9761C11.9458 34.0617 11.963 34.1302 11.9973 34.2158C12.0145 34.2672 12.0316 34.3186 12.066 34.3528C12.2376 34.7467 12.5294 34.9864 12.7353 35.0892C12.8383 35.1234 12.9241 35.1577 12.9756 35.1748C13.0271 35.1748 13.0614 35.1919 13.0614 35.1919C13.0614 35.1919 13.0271 35.1919 12.9756 35.1748C12.9241 35.1748 12.8383 35.1405 12.7353 35.0892C12.5294 34.9864 12.2548 34.7467 12.066 34.3528C12.0488 34.3014 12.0316 34.2501 11.9973 34.2158C12.066 34.4384 12.1689 34.6611 12.3406 34.8666C12.4436 35.0035 12.598 35.1234 12.7525 35.1919C12.8383 35.2262 12.9241 35.2604 12.9928 35.2775C13.0786 35.3118 13.1473 35.3289 13.2331 35.3632C13.5935 35.483 13.9711 35.5858 14.3659 35.6714C14.3659 35.6714 14.5203 35.7228 14.8293 35.7913C15.1725 35.8769 15.7046 35.9797 16.374 36.0653C16.5456 36.0824 16.7173 36.1167 16.8889 36.1338C16.9747 36.1338 17.0777 36.1509 17.1635 36.168C17.2322 36.168 17.3008 36.168 17.3866 36.168" fill="#B17D4C"/>
<path d="M12.0488 27.6904L12.066 27.5877C12.0488 27.2966 12.0145 27.0054 12.0145 26.7314C12.0145 26.7486 12.0145 26.7657 12.0145 26.7999V27.2109C12.0145 27.3822 12.0316 27.5534 12.0488 27.7076" fill="#B17D4C"/>
<path d="M12.3062 23.8545C12.3062 23.8545 12.3406 23.7688 12.3749 23.7346C12.3749 23.7346 12.3749 23.7517 12.3406 23.8031C12.3406 23.8031 12.3406 23.8373 12.3062 23.8545ZM11.8085 25.43C11.8256 25.3443 11.8428 25.2416 11.86 25.156C11.9801 24.5908 12.1346 24.2483 12.2204 24.0257C12.2547 23.9572 12.2719 23.9058 12.2891 23.8545C12.1518 24.1456 12.0488 24.4196 11.9458 24.7107C11.8771 24.9505 11.8256 25.1902 11.7913 25.43M12.0144 27.1938V26.7828C12.0144 26.7828 12.0144 26.7486 12.0144 26.7143C12.0144 26.3033 12.0144 25.9094 12.0659 25.5327C12.1518 24.882 12.3577 24.2655 12.6152 23.7175C12.9069 23.1181 13.2674 22.6044 13.645 22.1934C13.4219 22.4331 13.2331 22.6729 13.0614 22.9297C12.6323 23.5462 12.3577 24.197 12.1861 24.7963C12.0144 25.4128 11.9458 25.9779 11.963 26.4917C11.963 26.7314 11.9801 26.9712 11.9973 27.1938" fill="#B17D4C"/>
<path d="M16.9747 20.3102C16.9747 20.3102 17.1292 20.2759 17.215 20.2588C17.215 20.2588 17.1464 20.2588 17.0262 20.293C17.0091 20.293 16.9919 20.293 16.9747 20.293" fill="#B17D4C"/>
<path d="M13.645 22.1933C13.9711 21.8508 14.3315 21.5254 14.7606 21.2514C15.3956 20.8233 16.168 20.4808 16.9918 20.3096C17.009 20.3096 17.0262 20.3096 17.0433 20.3096C16.9747 20.3096 16.906 20.3267 16.8202 20.3438C16.7344 20.3609 16.6314 20.3952 16.5113 20.4294C16.0478 20.5664 15.3785 20.8062 14.6404 21.3371C14.3143 21.5768 13.9711 21.8679 13.6621 22.2104" fill="#B17D4C"/>
<path d="M15.6359 20.5844C16.1852 20.3618 16.7516 20.2077 17.3523 20.1221C16.7516 20.1906 16.168 20.3618 15.6359 20.5844ZM11.7741 25.6191C11.7741 25.6191 11.7913 25.4993 11.8085 25.4308C11.8428 25.191 11.8943 24.9513 11.9629 24.7115C12.1003 24.2149 12.3234 23.7012 12.598 23.2217C12.3062 23.7012 12.1003 24.2149 11.9629 24.7115C11.8943 24.9513 11.8428 25.191 11.8085 25.4308C11.8085 25.4993 11.7913 25.5506 11.7741 25.6191ZM11.7227 26.1843C11.7227 25.9959 11.757 25.8075 11.7741 25.602C11.757 25.8075 11.7398 25.9959 11.7227 26.1843ZM11.9286 29.5579C11.8771 29.027 11.8256 28.4276 11.7913 27.7597C11.7741 27.4344 11.757 27.109 11.7398 26.7665C11.7398 27.1261 11.7741 27.4515 11.7913 27.7597C11.8428 28.4276 11.8943 29.0441 11.9286 29.5579Z" fill="#B17D4C"/>
<path d="M11.4824 26.8C11.4824 26.8 11.4824 26.6287 11.4824 26.5431C11.4824 25.6869 11.6883 24.8135 12.0316 24.0258C12.3749 23.238 12.8726 22.5188 13.4733 21.9365C12.8726 22.5188 12.3749 23.2209 12.0316 24.0258C11.6883 24.8135 11.4995 25.6869 11.4824 26.5431C11.4824 26.6287 11.4824 26.7143 11.4824 26.8ZM11.551 28.8378C11.551 28.4782 11.5339 28.1186 11.5167 27.7418C11.5167 28.1186 11.5339 28.4782 11.551 28.8378ZM11.7913 33.2903C11.7913 33.1533 11.7741 33.0163 11.757 32.8793C11.7226 32.3142 11.6883 31.6977 11.6368 31.0298C11.6712 31.6977 11.7226 32.3142 11.757 32.8793C11.757 33.0163 11.7741 33.1533 11.7913 33.2903ZM11.8085 33.4787C11.8085 33.4787 11.8085 33.3588 11.8085 33.2903C11.8085 33.3588 11.8085 33.4102 11.8085 33.4787ZM12.701 35.1055C12.495 35.0028 12.2204 34.763 12.0316 34.3691C12.0144 34.3178 11.9973 34.2664 11.9629 34.2322C11.8943 34.078 11.8428 33.8897 11.8256 33.7013C11.8256 33.6328 11.8085 33.5643 11.8085 33.4958C11.8085 33.4958 11.8085 33.6328 11.8256 33.7013C11.86 33.8897 11.9114 34.078 11.9629 34.2322C11.9801 34.2835 11.9973 34.3349 12.0316 34.3691C12.2032 34.763 12.495 35.0028 12.701 35.1055ZM12.9413 35.1911C12.9413 35.1911 12.804 35.1569 12.701 35.1055C12.804 35.1398 12.8898 35.174 12.9413 35.1911ZM13.0271 35.2083C13.0271 35.2083 12.9927 35.2083 12.9413 35.1911C12.9927 35.1911 13.0271 35.2083 13.0271 35.2083Z" fill="#B17D4C"/>
<path d="M20.0984 36.116C20.0984 36.116 20.0984 36.116 20.1156 36.116C21.6603 35.9961 23.1535 35.6536 24.5438 35.157C24.99 35.0029 25.2132 34.6261 25.3333 34.3008C25.2475 34.5063 25.093 34.746 24.8184 34.9344C24.8184 34.9344 24.8012 34.9344 24.7497 34.9686C24.7154 34.9858 24.6468 35.02 24.5438 35.0543C24.355 35.1056 24.0632 35.1741 23.6856 35.2598C22.9304 35.431 21.7976 35.6365 20.3559 35.7221H20.2186H20.1499H20.1328C20.1328 35.7221 20.0813 35.705 20.0641 35.6879C20.0469 35.6708 20.0298 35.6536 20.0126 35.6023C19.9955 35.5509 19.9611 35.4653 19.9611 35.4139C19.9611 35.02 19.9955 34.6261 20.0126 34.198C20.0469 33.2904 20.0641 32.3143 20.0813 31.2525C20.1156 29.1291 20.1156 26.7145 20.0469 24.043V23.8546C20.0469 23.8546 20.0469 23.5635 20.0469 22.9813C20.0469 22.6901 20.0469 22.3305 20.0469 21.9024C20.0469 21.6798 20.0469 21.4571 20.0469 21.2003C20.0469 21.0975 20.0469 20.9948 20.0469 20.8749L20.0984 20.7037C20.0984 20.7037 20.0984 20.7037 20.0984 20.6694C20.0984 20.6694 20.1328 20.6352 20.1671 20.6352C20.1671 20.6352 20.2186 20.6352 20.2701 20.6523C20.3216 20.6523 20.3559 20.6694 20.4074 20.6865C20.5104 20.6865 20.6133 20.7379 20.7163 20.7722C20.8193 20.8064 20.9395 20.8406 21.0424 20.8749C21.1454 20.9263 21.2656 20.9605 21.3857 21.0119C22.3125 21.3544 23.1535 22.0736 23.411 22.2963C23.411 22.2963 23.4625 22.3476 23.5655 22.4161C23.6684 22.5018 23.8229 22.6216 23.9946 22.8271C24.2005 23.0326 24.4408 23.3409 24.6811 23.7176C24.6811 23.6662 24.6468 23.6149 24.6124 23.5292C24.6124 23.5121 24.6124 23.4779 24.5781 23.4607C24.1834 22.7758 23.6684 22.1593 23.0677 21.6455C22.9476 21.5599 22.8274 21.4914 22.7245 21.4229C22.5871 21.3373 22.4498 21.2688 22.3297 21.2174C22.2096 21.1489 22.1237 21.1146 22.0379 21.0804C22.1237 21.1146 22.2267 21.1489 22.3297 21.2174C22.4498 21.2688 22.5871 21.3373 22.7245 21.4229C22.8274 21.4914 22.9476 21.5599 23.0677 21.6455C22.6901 21.3201 22.261 21.029 21.7976 20.8064C21.523 20.6865 21.2312 20.5153 20.9223 20.4297V20.5153C20.9223 20.5153 20.9566 20.5153 20.9909 20.5153C21.0424 20.5153 21.1111 20.5153 21.2141 20.5495C20.8365 20.3954 20.4589 20.2755 20.0641 20.207C19.635 20.207 19.532 20.8406 19.532 20.8406V35.4481C19.532 35.4481 19.635 36.0989 20.0641 36.0989" fill="#B17D4C"/>
<path d="M23.72 22.1771C23.5312 21.9716 23.3081 21.7661 23.0506 21.5606C22.7073 21.3038 22.3126 21.0469 21.8148 20.8414C22.2611 21.0811 22.6902 21.3551 23.0849 21.6805C23.2909 21.8175 23.4969 21.9716 23.72 22.1771ZM24.5953 23.4957C24.5953 23.4957 24.5095 23.3245 24.458 23.2217C24.3894 23.0847 24.3036 22.9135 24.1662 22.7422C24.0461 22.571 23.9088 22.3655 23.72 22.1771C23.4969 21.9716 23.2909 21.8175 23.0849 21.6805C23.6857 22.1942 24.2006 22.8107 24.5953 23.4957ZM20.15 36.3907C20.15 36.3907 20.253 36.3907 20.4589 36.3736C20.6306 36.3565 20.888 36.3394 21.1798 36.288C21.7805 36.2024 22.5529 36.0482 23.3252 35.8256C23.7028 35.7229 24.0976 35.5859 24.4409 35.4489C24.5267 35.4146 24.6125 35.3975 24.7155 35.3461C24.8185 35.3119 24.9043 35.2434 24.9901 35.192C25.1446 35.0721 25.2819 34.918 25.3677 34.781C25.5393 34.4899 25.5908 34.2159 25.608 34.0275C25.608 33.8391 25.608 33.7193 25.5736 33.7021C25.5736 33.7021 25.5565 33.8563 25.4707 34.0789C25.4535 34.1474 25.4192 34.2159 25.3849 34.3015C25.2647 34.6269 25.0416 34.9865 24.5953 35.1577C23.1879 35.6715 21.7119 35.9969 20.1671 36.1167C20.1671 36.1167 20.1671 36.1167 20.15 36.1167C19.7209 36.1167 19.6179 35.466 19.6179 35.466V20.8585C19.6179 20.8585 19.7209 20.2249 20.15 20.2249C20.5447 20.3105 20.9395 20.4304 21.2999 20.5674C21.2999 20.5674 21.3171 20.5674 21.3343 20.5674C21.4544 20.6016 21.626 20.6359 21.832 20.7044C21.935 20.7386 22.0551 20.79 22.1753 20.8414C22.2954 20.8928 22.4327 20.9613 22.5872 21.0469C22.6559 21.0811 22.7417 21.1325 22.8103 21.1668C22.7245 21.1154 22.6559 21.064 22.57 21.0126C22.57 21.0126 22.6387 21.0469 22.7588 21.0983C22.8618 21.1496 22.9991 21.2353 23.1708 21.338C23.0506 21.2524 22.9305 21.1668 22.7932 21.0811C22.6044 20.9784 22.4327 20.8414 22.2096 20.7558C22.1066 20.7044 22.0036 20.653 21.8835 20.6016C21.7634 20.5503 21.6432 20.516 21.5231 20.4646C21.2828 20.3619 21.0253 20.2934 20.7507 20.2078C20.6134 20.1735 20.4761 20.1393 20.3216 20.1221C20.253 20.1221 20.1843 20.0879 20.1157 20.0879C20.0985 20.0879 20.0813 20.0879 20.047 20.0879C19.9612 20.0879 19.8582 20.1393 19.7895 20.1906C19.7037 20.2591 19.6351 20.3448 19.5836 20.4475C19.5664 20.4989 19.5493 20.5503 19.5321 20.5845C19.4978 20.6873 19.4806 20.7729 19.4806 20.8756V20.9099C19.4806 20.9955 19.4806 21.0811 19.4978 21.1668C19.4978 21.3209 19.5321 21.4579 19.5321 21.5778C19.5493 21.7833 19.5664 21.9031 19.5664 21.9031C19.5664 21.9031 19.5664 21.7833 19.5321 21.5778C19.5321 21.475 19.5149 21.338 19.4978 21.1668C19.4978 21.1668 19.4978 20.9955 19.4806 20.9099V20.8756C19.4806 20.7729 19.5149 20.6701 19.5321 20.5845C19.5321 20.5331 19.5664 20.4989 19.5836 20.4475C19.5493 20.516 19.5149 20.5845 19.4978 20.653C19.4806 20.7386 19.4463 20.8243 19.4463 20.927C19.4463 21.0126 19.4463 21.0811 19.4463 21.1668C19.4463 21.4921 19.4634 21.8175 19.4806 22.16C19.4806 22.5367 19.4806 22.9306 19.4978 23.3416C19.4978 23.5642 19.4978 25.3795 19.4978 27.6228C19.4978 29.301 19.4978 31.2019 19.4634 32.8288C19.4634 33.6508 19.4291 34.4043 19.3948 35.0207C19.3948 35.1749 19.3948 35.329 19.3776 35.4831C19.3776 35.5345 19.3776 35.5859 19.3948 35.6201C19.3948 35.6544 19.3948 35.6886 19.4291 35.7229C19.4463 35.7914 19.4806 35.8599 19.4978 35.9284C19.5664 36.0825 19.6694 36.2024 19.7895 36.288C19.9097 36.3736 20.047 36.3907 20.15 36.4079" fill="#B17D4C"/>
<path d="M25.4535 33.4281C25.4707 33.1199 25.5393 32.178 25.5736 30.7395C25.5736 30.2086 25.5908 29.5921 25.5908 28.9414C25.5908 30.26 25.5393 31.7499 25.4535 33.3939V33.4281Z" fill="#B17D4C"/>
<path d="M25.1102 24.6424C25.0587 24.5054 25.0073 24.3856 24.9558 24.2486C24.87 24.0602 24.767 23.9061 24.6812 23.752C24.6983 23.8205 24.7155 23.8547 24.7155 23.8547C24.87 24.1116 24.9901 24.3684 25.1102 24.6424Z" fill="#B17D4C"/>
<path d="M24.6468 22.8442C24.1834 22.1421 23.617 21.6798 23.2051 21.4058C23.1708 21.3886 23.1364 21.3715 23.1021 21.3544C23.617 21.7311 23.9603 22.0908 24.2177 22.3476C24.355 22.5189 24.4752 22.6388 24.5438 22.7244C24.5953 22.7929 24.6297 22.8443 24.6468 22.8614M25.8139 26.5946C25.8139 26.4405 25.8139 26.2863 25.7968 26.1322C25.7624 25.9096 25.7453 25.687 25.711 25.4815C25.6595 25.276 25.6251 25.0705 25.5737 24.865C25.3505 24.0772 25.0073 23.4436 24.6468 22.9299C24.2864 22.4161 23.9088 22.0223 23.5312 21.714C23.3596 21.5599 23.1708 21.44 23.0163 21.3201C22.9305 21.2688 22.8447 21.2174 22.776 21.166C23.3252 21.5256 23.7886 21.9538 24.1491 22.3648C24.561 22.8443 24.8699 23.3409 25.1102 23.7861C25.5393 24.6424 25.711 25.3787 25.7796 25.9438C25.7796 26.0295 25.7968 26.098 25.8139 26.1836C25.8139 26.3206 25.8139 26.4405 25.8311 26.5775M25.8139 27.2111C25.8139 27.0741 25.8139 26.9542 25.8139 26.8172C25.8139 26.7316 25.8139 26.6631 25.8139 26.5775C25.8139 26.4405 25.8139 26.3035 25.7968 26.1836C25.7968 26.098 25.7796 26.0295 25.7625 25.9438C25.7625 25.9781 25.7625 26.0123 25.7625 26.0466C25.7968 26.3377 25.7968 26.5775 25.8139 26.7658C25.8139 26.9542 25.8139 27.0912 25.8139 27.2111ZM25.7968 27.3823C25.7968 27.3823 25.7968 27.2796 25.7968 27.2111C25.7968 27.2625 25.7968 27.3138 25.7968 27.3823ZM25.7968 27.5193C25.7968 27.5193 25.7968 27.4166 25.7968 27.3823C25.7968 27.468 25.7968 27.5193 25.7968 27.5193ZM25.608 28.9407C25.608 28.8037 25.608 28.6667 25.608 28.5468C25.608 27.8105 25.608 27.1426 25.5737 26.509C25.5737 26.2007 25.505 25.8925 25.4535 25.6185C25.4192 25.4815 25.3849 25.3445 25.3505 25.2075C25.3162 25.0705 25.2819 24.9506 25.2304 24.8307C25.1617 24.6252 25.0759 24.4369 24.9901 24.2485C25.0416 24.3855 25.0931 24.5054 25.1446 24.6424C25.299 25.002 25.402 25.3787 25.4878 25.7555C25.6251 26.4062 25.608 27.0398 25.6251 27.6392C25.6251 28.1016 25.6251 28.5297 25.6251 28.9407" fill="#B17D4C"/>
<path d="M25.8311 28.2562C25.8311 28.2562 25.8311 28.1363 25.8311 28.0678C25.8311 27.9993 25.8311 27.9308 25.8311 27.8623C25.8311 27.8623 25.8311 27.9993 25.8311 28.0678C25.8311 28.1363 25.8311 28.1877 25.8311 28.2562ZM25.5736 33.7019C25.7452 31.7496 25.8139 29.9173 25.8311 28.2562C25.8311 29.9173 25.7452 31.7496 25.5736 33.7019Z" fill="#B17D4C"/>
<path d="M25.8311 27.8622C25.8311 27.5026 25.8311 27.1601 25.8311 26.8347C25.8311 26.7662 25.8311 26.6806 25.8311 26.6121C25.8311 26.4751 25.8311 26.3381 25.8139 26.2182C25.8139 26.1326 25.7968 26.0641 25.7796 25.9785C25.7624 25.8586 25.7453 25.7387 25.7281 25.6189C25.5736 24.8482 25.2819 24.1632 24.9214 23.5981C25.2647 24.1632 25.5565 24.8482 25.7281 25.6189C25.7453 25.7387 25.7624 25.8586 25.7796 25.9785C25.7796 26.0641 25.7968 26.1326 25.8139 26.2182C25.8139 26.3552 25.8139 26.4751 25.8311 26.6121C25.8311 26.6806 25.8311 26.7662 25.8311 26.8347C25.8311 27.1772 25.8311 27.5197 25.8311 27.8622Z" fill="#B17D4C"/>
<path d="M22.3125 21.2515C22.1924 21.183 22.1066 21.1487 22.0208 21.1145C22.1066 21.1487 22.2096 21.183 22.3125 21.2515Z" fill="#B17D4C"/>
<path d="M20.3216 20.087C20.3216 20.087 20.1671 20.0527 20.0984 20.0527C20.1671 20.0527 20.2529 20.0699 20.3216 20.087ZM20.5275 20.1212C20.5275 20.1212 20.3902 20.1041 20.3387 20.087C20.4074 20.087 20.476 20.1041 20.5275 20.1212ZM19.4462 20.8747C19.4462 20.772 19.4806 20.6692 19.4977 20.5836C19.4977 20.5322 19.532 20.498 19.5492 20.4466C19.532 20.498 19.5149 20.5494 19.4977 20.5836C19.4634 20.6864 19.4462 20.772 19.4462 20.8747ZM22.7931 21.0117C22.7931 21.0117 22.7416 20.9775 22.7245 20.9775C22.7416 20.9775 22.7759 21.0117 22.7931 21.0117ZM19.4806 21.1658C19.4806 21.1658 19.4806 20.9946 19.4634 20.909C19.4634 20.9946 19.4634 21.0802 19.4806 21.1658ZM19.5149 21.5768C19.5149 21.4741 19.4977 21.3371 19.4806 21.1658C19.4806 21.32 19.5149 21.457 19.5149 21.5768ZM19.5492 21.9022C19.5492 21.9022 19.5492 21.7823 19.5149 21.5768C19.532 21.7823 19.5492 21.9022 19.5492 21.9022ZM23.9946 21.9536C23.617 21.5768 23.205 21.2686 22.7931 21.0117C23.205 21.2686 23.617 21.594 23.9946 21.9536ZM25.9684 26.5259C25.9684 26.3033 25.9684 26.0978 25.9169 25.8752C25.9512 26.0978 25.9512 26.3033 25.9684 26.5259ZM25.8997 29.5399C25.9512 28.7693 25.9684 27.9644 25.9855 27.1595C25.9855 27.9644 25.9512 28.7693 25.8997 29.5399Z" fill="#B17D4C"/>
<path d="M20.0985 18.2889C23.1536 17.6553 25.4707 14.9667 25.4707 11.7301V5.22266C25.4535 5.44528 25.4363 5.7364 25.4192 6.06177C25.4192 6.06177 25.2475 7.70576 25.1102 10.7197C25.0931 11.0965 25.0759 11.5075 25.0587 11.9013C25.0416 12.0897 25.0416 12.2952 24.9901 12.5007C24.9901 12.6035 24.9558 12.7062 24.9386 12.809C24.9214 12.9117 24.8871 13.0145 24.8528 13.1172C24.7498 13.5282 24.5782 13.9392 24.3894 14.3673C24.1662 14.7783 23.9259 15.1893 23.5998 15.5661C22.9819 16.3367 22.1238 17.0045 21.094 17.4327C20.9738 17.5012 20.8365 17.5354 20.6992 17.5868C20.5619 17.6382 20.4246 17.6724 20.2873 17.7067L20.1843 17.7409C20.1843 17.7409 20.1843 17.7409 20.1671 17.7409C20.1671 17.7409 20.1671 17.7409 20.1671 17.7238C20.1671 17.7067 20.15 17.6895 20.15 17.6553C20.15 17.6382 20.15 17.6039 20.15 17.6039V17.5697V17.4498C20.15 17.2785 20.15 17.1244 20.15 16.9532C20.15 16.6278 20.15 16.2853 20.1328 15.9428V15.7544C20.1328 15.7544 20.1328 14.5728 20.0642 12.2438C20.0642 12.2438 19.944 8.39075 19.8582 7.67151C19.8582 7.67151 19.7552 6.98651 19.6522 5.70215C19.6522 5.77065 19.6351 5.85628 19.6179 5.95902V8.425V9.98336C19.6351 10.2574 19.4978 10.5999 19.5321 10.9081C19.5321 10.9081 19.6694 10.7711 19.6179 10.5656V17.6382C19.6179 17.6382 19.7209 18.2718 20.15 18.2718" fill="#B17D4C"/>
<path d="M19.5492 8.42582V5.95984C19.5149 6.28521 19.4634 6.81608 19.4634 7.5867C19.4978 7.89495 19.5149 8.16895 19.5492 8.42582ZM19.2746 8.59707C19.206 7.20996 19.1545 6.47359 19.1545 6.47359C19.1545 7.34695 19.206 8.10045 19.2746 8.59707ZM19.3604 8.90531C19.2746 6.21671 19.2403 4.48711 19.2231 3.40824C19.2231 3.30549 19.2231 3.18562 19.2231 3.06575V2.91162V2.826C19.2231 2.826 19.2231 2.79175 19.2231 2.77462C19.2231 2.77462 19.2231 2.72325 19.2231 2.70612C19.2231 2.70612 19.2231 2.689 19.2231 2.67188C19.2231 2.689 19.2231 2.72325 19.2231 2.7575C19.2231 2.87737 19.2231 2.99725 19.2231 3.11712C19.2231 3.54524 19.2231 3.95624 19.2231 4.35011C19.2231 5.12073 19.2231 5.82284 19.2575 6.42221C19.2918 7.46683 19.3261 8.27169 19.3776 8.88819M19.5492 9.98418V8.42582C19.5149 8.16895 19.4978 7.89495 19.4634 7.5867C19.4634 8.22032 19.4634 9.00806 19.5492 9.98418ZM20.0641 18.3411C20.0641 18.3411 20.1156 18.3411 20.1328 18.3411C20.2358 18.324 20.3388 18.2897 20.4417 18.2726C20.6477 18.2212 20.8365 18.1527 21.0425 18.0842C21.4544 17.9472 21.8492 17.7417 22.2267 17.5191C22.6043 17.2794 22.9819 17.0225 23.308 16.7142C23.9774 16.0977 24.5267 15.3614 24.9043 14.6079C25.2647 13.8544 25.4878 13.1009 25.5736 12.4502C25.6594 11.7994 25.6766 11.3028 25.7281 10.9945C25.7281 10.9945 25.7624 4.65836 25.5221 4.58986C25.5221 4.58986 25.4878 4.81248 25.4535 5.22347V11.7309C25.4535 14.9675 23.1364 17.6732 20.0813 18.2897C19.6522 18.2897 19.5492 17.6561 19.5492 17.6561V10.5835C19.4978 10.3438 19.4291 9.91568 19.3776 9.23068C19.3776 9.12794 19.3604 9.02519 19.3433 8.92244C19.3433 9.02519 19.3433 9.14506 19.3433 9.26493C19.3433 9.26493 19.2918 9.02519 19.2575 8.63132C19.309 9.57318 19.3604 10.8062 19.3948 12.3132C19.4634 13.2379 19.5321 13.7688 19.5321 13.7688C19.5321 13.7688 19.4806 13.2208 19.3948 12.3132C19.4291 13.1865 19.4463 14.1626 19.4634 15.2073C19.4634 15.1901 19.4634 15.173 19.4634 15.173C19.4634 15.173 19.4634 15.3443 19.4634 15.6525C19.4634 16.0121 19.4634 16.5601 19.4634 17.228C19.4634 17.3136 19.4634 17.3992 19.4634 17.4849C19.4634 17.5705 19.4634 17.6732 19.4806 17.7589C19.5321 17.9301 19.6179 18.1356 19.7895 18.2726C19.8582 18.324 19.944 18.3582 20.0298 18.3582" fill="#B17D4C"/>
<path d="M19.5836 5.70299L19.6007 5.60024C19.5836 5.32625 19.5664 5.06937 19.5493 4.8125V5.2235C19.5493 5.39474 19.5664 5.54887 19.5836 5.70299Z" fill="#B17D4C"/>
<path d="M19.5492 5.22285V4.81186C19.5149 4.38373 19.4977 3.95561 19.4806 3.54462C19.4806 3.37337 19.4806 3.21925 19.4634 3.048C19.4634 2.96237 19.4634 2.87675 19.4634 2.79113C19.4634 2.68838 19.4977 2.61988 19.532 2.53425C19.5835 2.38013 19.6865 2.19176 19.8582 2.10613C19.944 2.05476 20.0298 2.03763 20.1328 2.03763C20.2186 2.03763 20.3044 2.03763 20.3731 2.03763C20.8536 2.07188 21.3171 2.14038 21.7461 2.20888C21.5917 2.17463 21.4372 2.15751 21.2827 2.14038C20.9051 2.08901 20.5619 2.05476 20.2014 2.02051C20.1671 2.02051 20.1499 2.02051 20.1156 2.02051C19.9268 2.02051 19.7552 2.10613 19.6522 2.26026C19.532 2.4315 19.4806 2.58563 19.4462 2.774C19.4462 3.44187 19.4806 3.98986 19.5149 4.50361C19.5149 4.76048 19.5492 5.00023 19.5664 5.22285" fill="#B17D4C"/>
<path d="M20.253 1.81498C20.253 1.81498 20.1843 1.81498 20.15 1.81498C20.2186 1.81498 20.253 1.81498 20.253 1.81498ZM19.2231 3.40759C19.2231 3.40759 19.2231 3.27059 19.2231 3.20209C19.2231 3.06509 19.2231 2.92809 19.2231 2.80822C19.2231 2.60272 19.2918 2.49997 19.3261 2.3801C19.3776 2.27735 19.4463 2.14035 19.5321 2.05472C19.6179 1.9691 19.7037 1.9006 19.7895 1.86635C19.9268 1.79785 20.047 1.79785 20.1156 1.79785C20.1156 1.79785 20.1156 1.79785 20.1328 1.79785C20.1328 1.79785 20.1328 1.79785 20.15 1.79785C20.15 1.79785 20.1156 1.79785 20.0985 1.79785C19.9612 1.79785 19.8067 1.8321 19.7037 1.9006C19.5493 1.98622 19.4119 2.1746 19.3433 2.3116C19.309 2.3801 19.2746 2.4486 19.2575 2.51709C19.2575 2.55134 19.2403 2.58559 19.2231 2.61984C19.2231 2.63697 19.2231 2.65409 19.2231 2.67122C19.2231 2.67122 19.2231 2.68834 19.2231 2.70547C19.2231 2.70547 19.2231 2.75684 19.2231 2.77397C19.2231 2.77397 19.2231 2.80822 19.2231 2.82534V2.91097V3.06509C19.2231 3.18496 19.2231 3.28771 19.2231 3.40759ZM25.4192 4.29808C25.4192 4.29808 25.4192 4.2467 25.4192 4.21245C25.402 4.09258 25.3677 3.90421 25.2647 3.68158C25.1617 3.45896 24.9558 3.18496 24.6125 3.04796C24.2864 2.91097 23.9088 2.77397 23.4797 2.63697C22.9648 2.48284 22.3812 2.32872 21.7462 2.20885C22.3469 2.3116 22.982 2.46572 23.617 2.68834C23.823 2.75684 24.0289 2.82534 24.2349 2.91097C24.4409 2.99659 24.6468 3.04796 24.8528 3.20209C25.196 3.44184 25.3848 3.85283 25.4363 4.26383C25.4363 4.26383 25.4363 4.29808 25.4363 4.3152" fill="#B17D4C"/>
<path d="M20.9051 1.86687C20.9051 1.86687 20.8536 1.86687 20.8193 1.86687C20.7163 1.86687 20.5962 1.84975 20.4932 1.83262H20.3387L20.2529 1.8155C20.2186 1.8155 20.1671 1.8155 20.1328 1.8155C20.1328 1.8155 20.2186 1.8155 20.2529 1.8155H20.3387L20.4932 1.83262C20.5962 1.83262 20.7163 1.84975 20.8193 1.86687C20.8536 1.86687 20.8708 1.86687 20.9051 1.86687ZM19.3261 2.32924C19.3604 2.27787 19.3947 2.19225 19.4462 2.12375C19.4977 2.05525 19.5664 1.98675 19.635 1.93537C19.635 1.93537 19.4977 2.05525 19.4462 2.12375C19.3947 2.19225 19.3432 2.27787 19.3261 2.32924ZM19.2574 2.51762C19.2574 2.51762 19.2918 2.39774 19.3261 2.32924C19.2918 2.39774 19.2746 2.44912 19.2574 2.51762ZM19.2059 2.72312C19.2059 2.72312 19.2059 2.70599 19.2059 2.68887C19.2059 2.62037 19.2403 2.56899 19.2574 2.51762C19.2574 2.56899 19.2231 2.62037 19.2059 2.68887C19.2059 2.68887 19.2059 2.70599 19.2059 2.72312ZM19.2059 2.79162C19.2059 2.79162 19.2059 2.74024 19.2059 2.72312C19.2059 2.72312 19.2059 2.77449 19.2059 2.79162ZM19.2059 2.84299C19.2059 2.84299 19.2059 2.80874 19.2059 2.79162C19.2059 2.79162 19.2059 2.82586 19.2059 2.84299ZM19.2231 3.68211C19.2231 3.68211 19.2231 3.66498 19.2231 3.64786C19.2231 3.56223 19.2231 3.47661 19.2231 3.40811C19.2231 3.30536 19.2231 3.18549 19.2231 3.06561C19.2231 3.18549 19.2231 3.28824 19.2231 3.40811C19.2231 3.49373 19.2231 3.57936 19.2231 3.64786C19.2231 3.64786 19.2231 3.66498 19.2231 3.68211ZM25.5736 4.48697C25.5736 4.2301 25.5393 4.00748 25.4534 3.76773C25.3505 3.51086 25.196 3.25399 24.9557 3.08274C24.8356 2.99711 24.6983 2.92861 24.5781 2.87724C24.458 2.82586 24.355 2.77449 24.2348 2.74024C24.0117 2.65462 23.7714 2.56899 23.5483 2.48337C23.7714 2.56899 24.0117 2.63749 24.2348 2.74024C24.355 2.79162 24.458 2.82586 24.5781 2.87724C24.6983 2.92861 24.8356 2.99711 24.9557 3.08274C25.196 3.25399 25.3505 3.51086 25.4534 3.76773C25.5393 4.00748 25.5736 4.24723 25.5736 4.48697ZM25.5736 4.5726C25.5736 4.5726 25.5736 4.52122 25.5736 4.48697C25.5736 4.52122 25.5736 4.53835 25.5736 4.5726ZM19.3261 5.77134C19.2918 5.13772 19.2574 4.4356 19.2231 3.69923C19.2403 4.45272 19.2918 5.13772 19.3261 5.77134ZM19.3261 5.78846C19.3261 5.78846 19.3261 5.78846 19.3261 5.77134C19.3261 5.77134 19.3261 5.77134 19.3261 5.78846ZM19.3432 5.95971C19.3432 5.95971 19.3432 5.87408 19.3432 5.82271C19.3432 5.87408 19.3432 5.90833 19.3432 5.95971ZM19.3432 5.99396C19.3432 5.99396 19.3432 5.99396 19.3432 5.97683C19.3432 5.97683 19.3432 5.97683 19.3432 5.99396ZM19.3432 6.01108C19.3432 6.01108 19.3432 6.01108 19.3432 5.99396C19.3432 5.99396 19.3432 5.99396 19.3432 6.01108Z" fill="#B17D4C"/>
<path d="M21.1282 1.76343C20.9223 1.72918 20.7163 1.69493 20.5104 1.6778C20.7163 1.71205 20.9223 1.72918 21.1282 1.76343ZM22.3297 2.03743C22.3297 2.03743 22.2954 2.03743 22.2782 2.03743C22.2782 2.03743 22.3125 2.03743 22.3297 2.03743ZM19.0343 2.77379C19.0343 2.77379 19.0343 2.67104 19.0515 2.63679C19.0858 2.48267 19.1373 2.3628 19.2059 2.20867C19.1373 2.34567 19.0858 2.46555 19.0515 2.63679C19.0515 2.68817 19.0343 2.72242 19.0343 2.77379ZM19.5492 13.7508C19.5492 13.7508 19.4977 13.2028 19.4119 12.2952C19.3432 11.4903 19.2746 10.3772 19.1888 9.10998C19.2574 10.3772 19.3432 11.4903 19.4119 12.2952C19.4806 13.2199 19.5492 13.7508 19.5492 13.7508Z" fill="#B17D4C"/>
<path d="M17.3695 18.2893C17.7986 18.2893 17.9015 17.6557 17.9015 17.6557V2.79137C17.9015 2.79137 17.7986 2.14062 17.3695 2.14062C17.3695 2.14062 17.3695 2.14062 17.3523 2.14062C15.7904 2.2605 14.2972 2.603 12.8898 3.11674C12.4264 3.30511 12.2033 3.73323 12.1003 4.10998C12.1861 3.88736 12.3062 3.63049 12.5465 3.40786C12.5465 3.40786 12.5637 3.40786 12.598 3.35649C12.6323 3.32224 12.701 3.28799 12.7868 3.25374C12.8383 3.25374 12.8726 3.21949 12.9413 3.20236C13.0099 3.20236 13.0614 3.16811 13.1473 3.15099C13.2846 3.11674 13.4562 3.08249 13.645 3.03112C14.4002 2.85987 15.5501 2.62012 17.0262 2.55162C17.112 2.55162 17.215 2.55162 17.3008 2.55162C17.3351 2.55162 17.3523 2.55162 17.3866 2.56875C17.4038 2.56875 17.421 2.603 17.4381 2.63725C17.4381 2.67149 17.4896 2.73999 17.4896 2.80849C17.4896 2.85987 17.4896 2.84274 17.4896 2.85987V3.01399C17.4896 3.11674 17.4896 3.23661 17.4725 3.33936C17.4725 3.56199 17.4725 3.78461 17.4553 4.00723C17.421 4.91485 17.4038 5.92521 17.3866 6.98695C17.3523 9.12756 17.3523 11.5764 17.421 14.2821V14.4705C17.421 14.4705 17.421 14.7616 17.421 15.361C17.421 15.6521 17.421 16.0117 17.421 16.457C17.421 16.6796 17.421 16.9194 17.421 17.1591C17.421 17.279 17.421 17.416 17.421 17.553V17.6043C17.421 17.6043 17.421 17.6043 17.421 17.6386C17.421 17.69 17.3866 17.7242 17.3866 17.7756C17.3866 17.7756 17.3866 17.7927 17.3866 17.8098C17.3866 17.827 17.3523 17.8612 17.318 17.8612C17.318 17.8612 17.3008 17.8612 17.2837 17.8612C17.2493 17.8612 17.1978 17.8441 17.1464 17.827C17.0434 17.8098 16.9404 17.7927 16.8374 17.7585C16.6314 17.69 16.3912 17.6386 16.1509 17.5358C15.6875 17.3646 15.224 17.1077 14.8636 16.8509C14.5032 16.6111 14.2286 16.3542 14.0912 16.2515C14.0912 16.2515 14.0398 16.2001 13.9368 16.1145C13.8338 16.0289 13.6793 15.909 13.5077 15.7035C13.3017 15.498 13.0443 15.1897 12.804 14.813C12.804 14.8644 12.8383 14.9157 12.8726 15.0014C12.8726 15.0185 12.8726 15.0356 12.8898 15.0699C13.3017 15.772 13.8166 16.3885 14.4345 16.9022C14.5547 16.9879 14.6748 17.0564 14.795 17.1249C15.1211 17.279 15.3613 17.3988 15.533 17.4673C15.7046 17.5358 15.7904 17.553 15.7904 17.5701C15.7904 17.5701 15.6875 17.5358 15.533 17.4673C15.3613 17.416 15.1211 17.2961 14.795 17.1249C14.692 17.0564 14.5718 16.9879 14.4345 16.9022C14.8293 17.2276 15.2412 17.5016 15.7046 17.7242C15.9792 17.8441 16.2882 18.0153 16.6143 18.101V18.0153C16.58 18.0153 16.4941 18.0153 16.3053 17.9811C16.6486 18.1181 17.009 18.2208 17.3695 18.2893Z" fill="#B17D4C"/>
<path d="M14.4517 16.8846C13.8338 16.3709 13.3017 15.7544 12.907 15.0523C12.9413 15.1379 12.9928 15.2235 13.0443 15.3434C13.0786 15.4119 13.1301 15.4975 13.1644 15.566C13.2159 15.6516 13.2674 15.7201 13.3361 15.8229C13.4562 16.0113 13.6278 16.2168 13.8166 16.4222C13.9711 16.5592 14.1599 16.6791 14.2972 16.799C14.3487 16.8332 14.4002 16.8675 14.4517 16.9017M14.4345 17.2271C13.9024 16.8504 13.542 16.4907 13.2846 16.2168C13.1301 16.0455 13.0271 15.9256 12.9585 15.84C12.8898 15.7544 12.8555 15.7201 12.8555 15.703C13.3189 16.4051 13.9024 16.8675 14.3315 17.1586C14.3659 17.1757 14.4002 17.21 14.4517 17.2271M14.7263 17.347C14.1942 16.9874 13.748 16.5935 13.3875 16.1825C12.9585 15.703 12.6495 15.2064 12.4092 14.744C12.2891 14.5214 12.2033 14.2816 12.1174 14.0761C12.0488 13.8535 11.963 13.6651 11.9115 13.4768C11.86 13.2884 11.8257 13.1 11.7913 12.9288C11.7913 12.8603 11.7742 12.7918 11.757 12.7233C11.7398 12.6205 11.7227 12.5007 11.7055 12.3808C11.7055 12.3637 11.7055 12.3294 11.7055 12.3123C11.7055 12.1753 11.7055 12.0554 11.6884 11.9184C11.6884 12.0725 11.6884 12.2267 11.7055 12.3808C11.7398 12.6034 11.757 12.826 11.7913 13.0487C11.8428 13.2542 11.8772 13.4768 11.9458 13.6651C12.1861 14.4529 12.5122 15.1036 12.8898 15.6174C13.5249 16.4907 14.1942 17.0216 14.7435 17.347M15.7218 17.7066C15.2584 17.484 14.8464 17.1929 14.4517 16.8846C14.4002 16.8504 14.3487 16.8161 14.2972 16.7819C14.1599 16.662 13.9711 16.5592 13.8166 16.4051C14.0054 16.5935 14.2286 16.799 14.486 17.0045C14.8293 17.2614 15.2412 17.5182 15.7218 17.7066ZM17.3866 18.443C17.5411 18.443 17.7127 18.3574 17.8157 18.2204C17.8672 18.1519 17.9187 18.0491 17.953 17.9806C17.9702 17.9292 17.9874 17.8607 18.0045 17.8265C18.0045 17.7751 18.0217 17.7237 18.0217 17.6724C18.0217 17.6724 18.0217 17.5525 18.0217 17.5011C18.0217 17.4155 18.0217 17.3299 18.0045 17.2442C18.0045 17.0901 17.9702 16.9531 17.9702 16.8332C17.953 16.6106 17.9359 16.4907 17.9359 16.4907C17.9359 16.4907 17.9359 16.6106 17.9702 16.8332C17.9702 16.9531 17.9874 17.0901 18.0045 17.2442C18.0045 17.3299 18.0045 17.4155 18.0217 17.5011C18.0217 17.5525 18.0217 17.6039 18.0217 17.6552C18.0217 17.6552 18.0217 17.7922 18.0045 17.8265C18.0045 17.8779 17.9874 17.9292 17.953 17.9806C17.9874 17.9121 18.0045 17.8265 18.0217 17.7409C18.0217 17.6895 18.0217 17.6381 18.0217 17.6039V17.484C18.0217 17.484 18.0217 17.3299 18.0217 17.2442C18.0217 16.9189 18.0217 16.5935 17.9874 16.2339C17.9874 15.8571 17.9874 15.4461 17.9702 15.0351C17.9702 14.8125 17.9702 12.963 17.9702 10.7026C17.9702 9.00719 17.9702 7.08921 18.0045 5.42811C18.0045 4.60611 18.0389 3.8355 18.0732 3.20188C18.0732 3.11625 18.0732 3.04775 18.0732 2.97925C18.0732 2.94501 18.0732 2.91076 18.0732 2.87651C18.0732 2.82513 18.0732 2.77376 18.0732 2.73951C18.0389 2.56826 18.0045 2.43126 17.9187 2.29426C17.8329 2.14014 17.7127 2.03739 17.5754 1.96889C17.4381 1.91752 17.3008 1.90039 17.1978 1.90039C17.1978 1.90039 16.8031 1.93464 16.2024 2.02026C15.6016 2.10589 14.8121 2.26001 14.0226 2.49976C13.6278 2.61963 13.2502 2.73951 12.8898 2.87651C12.8383 2.89363 12.804 2.91076 12.7525 2.92788C12.701 2.96213 12.6495 2.97925 12.598 3.0135C12.5122 3.082 12.4264 3.13338 12.3406 3.219C12.2033 3.37313 12.1003 3.52725 12.0316 3.68137C11.8943 3.98962 11.86 4.26362 11.86 4.45199C11.86 4.64036 11.8772 4.76024 11.9115 4.76024C11.9115 4.76024 11.9286 4.60611 11.9973 4.36637C12.0145 4.29787 12.0488 4.22937 12.066 4.14374C12.1689 3.767 12.3921 3.32175 12.8555 3.1505C14.2629 2.63676 15.7561 2.31139 17.318 2.17439C17.318 2.17439 17.318 2.17439 17.3351 2.17439C17.7642 2.17439 17.8672 2.82513 17.8672 2.82513V17.6724C17.8672 17.6724 17.7642 18.306 17.3351 18.306C16.9747 18.2375 16.6143 18.1176 16.271 17.9977C16.271 17.9977 16.2538 17.9977 16.2367 17.9977C16.1165 17.9806 15.9449 17.9292 15.7389 17.8607C15.636 17.8265 15.5158 17.7751 15.3957 17.7237C15.2755 17.6724 15.1211 17.621 14.9837 17.5354C14.8979 17.484 14.7949 17.4326 14.692 17.3812C14.7949 17.4497 14.8979 17.5182 15.0009 17.5696C15.0009 17.5696 14.9323 17.5354 14.8121 17.484C14.7435 17.4497 14.6748 17.4155 14.589 17.3641C14.5375 17.3299 14.4688 17.2956 14.4002 17.2442C14.5203 17.3299 14.6405 17.3984 14.7606 17.484C14.8464 17.5354 14.9494 17.6039 15.0352 17.6552C15.1382 17.7066 15.2412 17.758 15.3442 17.8094C15.5501 17.9292 15.7904 18.0149 16.0307 18.1176C16.1509 18.169 16.2882 18.2032 16.4083 18.2375C16.5456 18.2717 16.6658 18.3231 16.8031 18.3574C16.9576 18.3916 17.112 18.4259 17.2665 18.4601C17.2837 18.4601 17.3008 18.4601 17.3351 18.4601" fill="#B17D4C"/>
<path d="M12.804 14.7963L12.7696 14.6935C12.6152 14.4367 12.4779 14.1627 12.3749 13.8887C12.4264 14.0257 12.4779 14.1627 12.5293 14.2997C12.6152 14.488 12.7181 14.6422 12.804 14.7963Z" fill="#B17D4C"/>
<path d="M11.7398 12.7404C11.7398 12.6548 11.7055 12.5521 11.7055 12.4664C11.6712 12.1753 11.6712 11.9356 11.654 11.7301C11.654 11.5417 11.654 11.3876 11.654 11.2848C11.654 11.0622 11.654 10.9766 11.654 10.9766C11.654 11.2163 11.654 11.4561 11.654 11.6787C11.654 11.7643 11.654 11.8499 11.654 11.9184C11.654 12.0554 11.654 12.1753 11.6712 12.3123C11.6712 12.3294 11.6712 12.3637 11.6712 12.3808C11.6712 12.5007 11.7055 12.6034 11.7226 12.7062M12.5293 14.2988C12.4778 14.1618 12.4263 14.0248 12.3749 13.8878C12.2204 13.511 12.1174 13.1343 12.0316 12.7576C11.8943 12.1068 11.9114 11.4561 11.8771 10.8567C11.8771 10.3943 11.8771 9.94908 11.8771 9.53809C11.8771 9.67508 11.8771 9.81208 11.8771 9.94908C11.8771 10.6854 11.8771 11.3704 11.9114 12.0041C11.9114 12.3294 11.9973 12.6206 12.0316 12.9117C12.1174 13.1857 12.1689 13.4597 12.2719 13.6994C12.3577 13.9049 12.4435 14.1104 12.5293 14.2817" fill="#B17D4C"/>
<path d="M11.86 9.55566C11.86 8.21992 11.9115 6.71294 11.9973 5.05183V5.01758C11.9801 5.32583 11.9115 6.28482 11.8771 7.74043C11.8771 8.28842 11.86 8.90491 11.86 9.57278" fill="#B17D4C"/>
<path d="M15.533 17.4333C15.3613 17.3819 15.121 17.262 14.7949 17.0908C14.692 17.0223 14.5718 16.9538 14.4345 16.8682C14.5547 16.9538 14.6748 17.0223 14.7949 17.0908C15.121 17.2449 15.3613 17.3648 15.533 17.4333ZM15.8076 17.536C15.8076 17.536 15.7046 17.5018 15.5501 17.4333C15.7218 17.5018 15.8076 17.5189 15.8076 17.536Z" fill="#B17D4C"/>
<path d="M11.6368 10.6518C11.6368 10.6518 11.6368 10.4976 11.6368 10.4291C11.6368 8.69952 11.7227 6.78154 11.8943 4.72656C11.7055 6.76442 11.6368 8.6824 11.6368 10.4291C11.6368 10.4976 11.6368 10.5833 11.6368 10.6518ZM11.6883 12.3985C11.6883 12.3985 11.6883 12.3471 11.6883 12.33C11.6883 12.193 11.6883 12.0731 11.6712 11.9361C11.6712 12.0731 11.6712 12.193 11.6883 12.33C11.6883 12.3471 11.6883 12.3814 11.6883 12.3985ZM11.7741 12.9294C11.7741 12.9294 11.757 12.7924 11.7398 12.741C11.7227 12.6382 11.7055 12.5184 11.6883 12.4156C11.6883 12.5355 11.7227 12.6382 11.7398 12.7581C11.7398 12.8266 11.757 12.8951 11.7741 12.9465M14.4517 16.8852C14.4517 16.8852 14.3487 16.8167 14.2972 16.7824C14.1599 16.6626 13.9711 16.5598 13.8166 16.4057C13.7823 16.3886 13.7651 16.3543 13.7308 16.3372C13.336 15.9947 12.9413 15.5323 12.598 14.9843C12.9584 15.5495 13.336 16.0118 13.7308 16.3372C13.7651 16.3543 13.7823 16.3886 13.8166 16.4057C13.9711 16.5427 14.1599 16.6626 14.2972 16.7824C14.3487 16.8167 14.4002 16.8509 14.4517 16.8852Z" fill="#B17D4C"/>
<path d="M11.4824 11.3541C11.4824 10.5492 11.5167 9.7272 11.5682 8.93945C11.5167 9.7272 11.4995 10.5321 11.4824 11.3541ZM11.5339 12.6384C11.4995 12.4158 11.4824 12.2103 11.4824 11.9877C11.4824 12.2103 11.4824 12.4329 11.5339 12.6384ZM17.953 16.7998C17.9358 16.5771 17.9187 16.4573 17.9187 16.4573C17.9187 16.4573 17.9187 16.5771 17.953 16.7998ZM18.0217 17.6389C18.0217 17.6389 18.0217 17.519 18.0217 17.4676C18.0217 17.382 18.0217 17.2964 18.0045 17.2107C18.0045 17.0566 17.9702 16.9196 17.9702 16.7998C17.9702 16.9196 17.9873 17.0566 18.0045 17.2107C18.0045 17.2964 18.0045 17.382 18.0217 17.4676C18.0217 17.519 18.0217 17.5704 18.0217 17.6217M16.6314 18.341C16.065 18.204 15.4471 17.9642 14.8121 17.6046C14.1942 17.245 13.5763 16.7484 13.0614 16.1148C12.5465 15.4983 12.1002 14.7448 11.8256 13.9228L11.7226 13.6145L11.654 13.2892C11.6368 13.1864 11.6025 13.0837 11.5853 12.9638C11.6025 13.0665 11.6368 13.1693 11.654 13.2892L11.7226 13.6145L11.8256 13.9228C12.1002 14.7448 12.5293 15.4983 13.0614 16.1148C13.5763 16.7313 14.1942 17.2279 14.8121 17.6046C15.43 17.9642 16.0479 18.2211 16.6314 18.341ZM17.2665 18.4609C17.2665 18.4609 17.112 18.4266 17.0433 18.4266C17.1292 18.4266 17.1978 18.4609 17.2665 18.4609ZM17.3694 18.478C17.3694 18.478 17.4724 18.478 17.5239 18.4437C17.7642 18.3581 17.9015 18.1355 17.9702 17.9642C17.9873 17.9129 18.0045 17.8444 18.0217 17.8101C18.0217 17.7587 18.0388 17.7074 18.0388 17.656C18.0388 17.656 18.0388 17.7587 18.0217 17.8101C18.0217 17.8615 18.0045 17.9129 17.9702 17.9642C17.9015 18.1526 17.7814 18.3752 17.5239 18.4437C17.4724 18.4437 17.4209 18.478 17.3694 18.478ZM17.3694 18.478C17.3694 18.478 17.3008 18.478 17.2836 18.478C17.2836 18.478 17.3523 18.478 17.3694 18.478Z" fill="#B17D4C"/>
<path d="M19.1888 37.9995C20.15 37.9995 21.2313 37.931 22.4499 37.7084C24.1662 37.4002 26.14 36.8008 28.131 35.6877C28.3884 35.5678 28.6287 35.3966 28.8862 35.2424C29.1265 35.0883 29.4011 34.9342 29.6414 34.763C30.1391 34.4033 30.654 34.0608 31.1346 33.6327C31.6323 33.2388 32.0958 32.7765 32.5763 32.3141C32.7995 32.0744 33.0398 31.8175 33.2629 31.5606C33.5032 31.3209 33.7091 31.0297 33.9323 30.7557C34.7904 29.6598 35.5971 28.4096 36.2322 27.0397C36.8672 25.6525 37.365 24.1456 37.6739 22.5187C37.9657 20.909 38.0687 19.1965 37.9314 17.4326C37.794 15.6859 37.3821 13.8878 36.6956 12.1411C36.009 10.3943 35.0479 8.71609 33.8121 7.17485C32.5763 5.63362 31.0831 4.22938 29.3324 3.09914L28.8519 2.80802C28.8519 2.80802 28.8004 2.77377 28.7146 2.72239C28.6116 2.6539 28.4743 2.56827 28.2683 2.46552C27.8735 2.26002 27.29 1.9004 26.449 1.55791C25.6251 1.19828 24.561 0.804414 23.2737 0.496167C22.0208 0.205045 20.5447 -0.0175781 18.8455 -0.0175781C18.7769 -0.0175781 18.7082 -0.0175781 18.6396 -0.0175781C18.6396 -0.0175781 18.4508 -0.0175781 18.1247 -0.0175781C17.7986 -0.0175781 17.3352 0.0166715 16.7688 0.0851709C15.636 0.205045 14.1084 0.513292 12.598 1.04416C11.8428 1.31816 11.0876 1.62641 10.3839 1.98603C9.68023 2.36277 9.01085 2.73952 8.42729 3.13339C8.27282 3.23614 8.13551 3.32176 7.99821 3.42451C7.8609 3.52726 7.74075 3.63001 7.62061 3.71564C7.38032 3.90401 7.14003 4.07526 6.93407 4.2465C6.53931 4.589 6.23037 4.88012 6.0244 5.05137C6.0244 5.05137 5.99008 5.08562 5.92142 5.17125C5.85277 5.23974 5.74979 5.35962 5.59532 5.51374C5.45801 5.66787 5.26921 5.85624 5.06325 6.07886C4.87445 6.31861 4.63416 6.59261 4.37671 6.90085C4.11925 7.2091 3.8618 7.58585 3.57002 7.97972C3.43271 8.18522 3.29541 8.40784 3.14093 8.63046C3.00363 8.87021 2.83199 9.09283 2.69468 9.3497C2.62603 9.4867 2.55738 9.60658 2.47156 9.74358C2.55738 9.6237 2.66036 9.46958 2.7805 9.26408C2.79766 9.22983 2.81483 9.19558 2.84915 9.17846C4.18791 7.03785 5.97291 5.18837 8.03253 3.74988C8.06686 3.71564 8.11835 3.68139 8.15268 3.66426C8.39297 3.49301 8.63326 3.33889 8.83922 3.18477C8.83922 3.18477 8.92503 3.11627 8.97653 3.09914C9.04518 3.04777 9.09667 3.01352 9.16532 2.96214C9.26831 2.89364 9.37129 2.84227 9.47427 2.77377C9.68023 2.6539 9.86903 2.53402 10.0407 2.43127C10.3839 2.20865 10.6929 2.05453 10.9503 1.93465C10.9503 1.93465 10.9675 1.93465 10.9847 1.91753C10.9847 1.91753 10.9675 1.91753 10.9503 1.93465C10.71 2.07165 10.3839 2.22577 10.0407 2.43127C9.86903 2.53402 9.68023 2.6539 9.47427 2.77377C9.37129 2.84227 9.26831 2.89364 9.16532 2.96214C9.09667 2.99639 9.04518 3.04777 8.97653 3.09914C8.92503 3.13339 8.89071 3.16764 8.83922 3.18477C8.61609 3.33889 8.39297 3.49301 8.15268 3.66426C8.11835 3.69851 8.06686 3.73276 8.03253 3.74988C8.77056 3.23614 9.54292 2.77377 10.3496 2.3799C10.8817 2.1059 11.4309 1.86615 11.9973 1.64353C11.9973 1.64353 12.0316 1.64353 12.0488 1.64353C12.804 1.33528 13.7651 1.28391 14.6576 1.06129C14.6576 1.06129 14.2972 0.907163 13.6965 1.11266C15.2927 0.667415 16.9919 0.427667 18.7254 0.427667C21.094 0.427667 23.3595 0.872913 25.4535 1.67778C26.0199 1.9004 26.5691 2.14015 27.1012 2.41415C33.2286 5.47949 37.4508 11.8157 37.4508 19.128C37.4508 26.4403 33.2286 32.7593 27.1012 35.8418C26.5691 36.1158 26.0199 36.3556 25.4535 36.5782C23.3595 37.3831 21.094 37.8283 18.7254 37.8283C16.3568 37.8283 14.1771 37.4002 12.1174 36.6296C12.7353 36.8864 13.5249 37.1604 14.5032 37.4002C14.5032 37.4002 14.795 37.4858 15.3957 37.6057C15.9964 37.7255 16.8717 37.8968 18.0732 37.9653C18.4336 37.9824 18.8112 37.9995 19.206 37.9995" fill="#B17D4C"/>
<path d="M6.05871 5.51381C6.64227 4.96581 7.32881 4.4007 8.13549 3.83558C8.34146 3.69858 8.54742 3.56158 8.77054 3.42458C8.99367 3.28758 9.19963 3.13346 9.43992 2.99646C9.9205 2.73959 10.4011 2.43134 10.9331 2.19159C11.2936 2.02034 11.6712 1.8491 12.0659 1.69497C12.0659 1.69497 12.0316 1.69497 12.0144 1.69497C11.4481 1.91759 10.8988 2.15734 10.3667 2.43134C9.56006 2.84234 8.78771 3.28758 8.04968 3.80133C7.86088 3.95545 7.65491 4.1267 7.43179 4.28082C7.17434 4.46919 6.93405 4.70894 6.65943 4.94869C6.52212 5.06856 6.40198 5.18844 6.26467 5.30831C6.19602 5.37681 6.12736 5.44531 6.05871 5.51381ZM2.84913 9.2299C3.00361 8.99015 3.22673 8.71615 3.46702 8.37366C3.60433 8.18528 3.77596 7.97978 3.9476 7.77429C4.11923 7.56879 4.30803 7.32904 4.51399 7.08929C4.94308 6.6098 5.44082 6.07893 6.04155 5.51381C6.1102 5.44531 6.17885 5.37681 6.24751 5.30831C6.38482 5.18844 6.52212 5.06856 6.64227 4.94869C6.89972 4.70894 7.15717 4.48632 7.41463 4.28082C7.62059 4.10957 7.82655 3.95545 8.03251 3.80133C5.95573 5.23981 4.18789 7.08929 2.84913 9.2299ZM0.978311 24.6251C0.926821 24.471 0.87533 24.3169 0.841003 24.1456C0.87533 24.2997 0.926821 24.471 0.978311 24.6251ZM1.18427 25.2245C1.14995 25.1389 1.11562 25.0361 1.09846 24.9505C1.06413 24.8477 1.0298 24.745 0.995475 24.6422C1.06413 24.8477 1.11562 25.0361 1.18427 25.2416M9.9205 35.6193C9.9205 35.6193 9.74886 35.5165 9.42276 35.3281C9.25112 35.2425 9.06232 35.1055 8.8392 34.9514C8.61607 34.7973 8.34145 34.626 8.04968 34.4034C6.88256 33.5643 5.26919 32.1772 3.70731 30.0537C2.95211 28.992 2.21408 27.7418 1.61336 26.3034C1.45889 25.9437 1.32158 25.5841 1.18427 25.2074C1.23576 25.3786 1.28725 25.5499 1.37307 25.7211C1.5962 26.252 1.785 26.7828 2.05961 27.2966C2.2999 27.8275 2.60884 28.3412 2.91779 28.8721C3.07226 29.129 3.24389 29.3858 3.41553 29.6427C3.50135 29.7626 3.58716 29.8996 3.67298 30.0366C3.7588 30.1564 3.86178 30.2763 3.96476 30.4133C4.70279 31.4237 5.59529 32.3655 6.59078 33.256L6.96837 33.5814C7.08852 33.7013 7.22583 33.804 7.36314 33.9068C7.63775 34.1123 7.89521 34.3178 8.16982 34.5233C8.4616 34.7116 8.73622 34.9 9.028 35.0884L9.25112 35.2254L9.47425 35.3624C9.62872 35.448 9.78319 35.5336 9.93766 35.6193M28.1996 3.08208C28.5257 3.27046 28.8347 3.45883 29.1436 3.68145C28.9548 3.56158 28.766 3.4417 28.6116 3.33896C28.4571 3.25333 28.3198 3.16771 28.1996 3.08208ZM18.7254 37.8284C21.0939 37.8284 23.3595 37.3831 25.4535 36.5783C26.0199 36.3556 26.5691 36.1159 27.1012 35.8419C33.2285 32.7765 37.4508 26.4404 37.4508 19.128C37.4508 11.8157 33.2285 5.49668 27.1012 2.41421C26.5691 2.14022 26.0199 1.90047 25.4535 1.67785C23.3595 0.87298 21.0939 0.427734 18.7254 0.427734C16.9747 0.427734 15.2927 0.667482 13.6965 1.11273C13.645 1.11273 13.6107 1.14698 13.5592 1.1641C13.2159 1.28398 12.7525 1.45522 12.1518 1.7121C11.5682 1.96897 10.8302 2.29434 10.0063 2.79096C9.80035 2.91083 9.57723 3.04783 9.3541 3.16771C9.26828 3.21908 9.18247 3.28758 9.09665 3.33896C9.42276 3.13346 9.74886 2.94508 10.1093 2.75671C10.1093 2.75671 9.9205 2.87659 9.59439 3.08208C9.42276 3.18483 9.21679 3.32183 8.99367 3.47595C8.82203 3.59583 8.61607 3.73283 8.41011 3.88695C8.75338 3.6472 9.13098 3.39033 9.5429 3.15058C10.5899 2.53409 11.8085 1.93472 13.2331 1.47235C14.6576 1.00998 16.2882 0.667482 18.056 0.581858C18.2791 0.581858 18.5023 0.581858 18.7254 0.564733C18.897 0.564733 19.0686 0.564733 19.2231 0.564733C19.2231 0.564733 19.2231 0.564733 19.2403 0.564733C20.4417 0.564733 21.4029 0.684607 22.0551 0.770231C22.7073 0.87298 23.0677 0.941479 23.0677 0.941479C23.0677 0.941479 22.7073 0.855855 22.0551 0.770231C21.4029 0.667482 20.4417 0.564733 19.2403 0.564733C19.2403 0.564733 19.2403 0.564733 19.2231 0.564733C19.0686 0.564733 18.897 0.564733 18.7254 0.564733C18.794 0.564733 18.8627 0.564733 18.9313 0.564733C20.4589 0.564733 22.0894 0.753106 23.7543 1.19835C25.2303 1.60935 26.7407 2.20872 28.1996 3.04783C28.0623 2.97933 27.9422 2.91083 27.8392 2.85946C27.3929 2.61971 27.1527 2.48271 27.0497 2.44846C27.0154 2.44846 27.0154 2.43134 27.0154 2.43134C27.0154 2.43134 27.4788 2.67109 28.2854 3.11633C29.2123 3.66433 30.5682 4.58907 31.9756 5.9933C32.1644 6.16455 32.336 6.35293 32.5077 6.5413C32.6793 6.72967 32.8509 6.93517 33.0397 7.12354C33.2114 7.32904 33.383 7.55166 33.5546 7.77429C33.6405 7.87704 33.7263 7.99691 33.8121 8.09966C33.8979 8.21953 33.9666 8.33941 34.0524 8.45928C34.2069 8.69903 34.3785 8.93878 34.5501 9.17852C34.7046 9.4354 34.8591 9.69227 35.0135 9.94914C35.0822 10.0861 35.168 10.206 35.2367 10.343C35.3053 10.48 35.374 10.617 35.4426 10.754C35.5799 11.028 35.7344 11.302 35.8546 11.5931C36.3695 12.7405 36.7642 13.9906 37.0388 15.2921C37.3135 16.5936 37.4164 17.9293 37.4336 19.265C37.4336 20.6008 37.2448 21.9365 36.9702 23.2038C36.6784 24.471 36.2322 25.6869 35.7344 26.8C34.6703 29.0262 33.2972 30.8414 31.9413 32.1258C31.2719 32.7765 30.6197 33.3074 30.0361 33.7184C29.7443 33.9239 29.4697 34.1123 29.2294 34.2664C28.972 34.4205 28.7489 34.5404 28.5601 34.6603C28.5601 34.6603 28.4914 34.6945 28.3884 34.7801C28.2683 34.8486 28.0967 34.9685 27.8735 35.0713C27.6504 35.1911 27.3758 35.3453 27.0668 35.5165C26.7579 35.6706 26.3803 35.8419 25.9855 36.0131C25.1789 36.3556 24.2177 36.6981 23.1536 36.955C22.0894 37.2119 20.9223 37.4002 19.7552 37.4687C19.4119 37.4859 19.0515 37.503 18.7082 37.503C17.8844 37.503 17.0777 37.4516 16.3053 37.3489C15.2069 37.2119 14.1942 36.9721 13.336 36.7324C11.6712 36.2529 10.607 35.722 10.4697 35.722H10.5041C10.5041 35.722 10.8302 35.9446 11.4995 36.2529C11.7055 36.3385 11.9286 36.4584 12.2032 36.5611C14.2629 37.3317 16.4941 37.7599 18.8112 37.7599" fill="#B17D4C"/>
<path d="M1.40742 12.0383C1.59622 11.593 1.80218 11.1478 2.00814 10.7197C2.09396 10.5484 2.16262 10.3772 2.24843 10.2059C2.31709 10.0689 2.40291 9.93192 2.47156 9.79492C2.35142 9.9833 2.28276 10.086 2.28276 10.086C1.93949 10.7197 1.64771 11.3704 1.39026 12.0383" fill="#B17D4C"/>
<path d="M4.11921 8.13473C5.52662 6.28524 7.03701 4.93238 8.20413 4.07614C8.27278 4.02477 8.34143 3.97339 8.41009 3.92202C6.96835 4.94951 5.97287 5.94275 5.30349 6.67912C5.09753 6.91886 4.9259 7.12436 4.77143 7.29561C4.61695 7.46686 4.51397 7.63811 4.41099 7.75798C4.22219 8.01485 4.13638 8.13473 4.11921 8.13473ZM0.58353 16.2348C0.617857 16.0635 0.635021 15.8923 0.669348 15.7381C0.635021 15.9094 0.600694 16.0806 0.58353 16.2348ZM0.394732 18.2555C0.394732 17.8616 0.429059 17.4849 0.480549 17.1081C0.53204 16.4745 0.669348 15.8751 0.772329 15.2758C0.840983 14.9847 0.926801 14.6935 0.995455 14.4195C1.02978 14.2825 1.06411 14.1284 1.09844 13.9914C1.14993 13.8544 1.18425 13.7174 1.23574 13.5804C1.93945 11.4056 2.91777 9.62459 3.9819 8.1861C5.04604 6.74762 6.14451 5.6345 7.17432 4.77826C7.43177 4.55564 7.68922 4.36726 7.94667 4.17889C8.06682 4.07614 8.18696 3.99052 8.30711 3.90489C8.42725 3.81927 8.5474 3.73364 8.66754 3.66515C8.82201 3.5624 8.95932 3.47677 9.09663 3.37402C7.56908 4.33301 6.31614 5.39475 5.28633 6.52499C4.05056 7.87785 3.14089 9.24784 2.45435 10.5151C1.78498 11.7994 1.35589 13.0153 1.04695 14.077C0.892474 14.6764 0.755165 15.2415 0.669348 15.7553C0.635021 15.9265 0.617857 16.0806 0.58353 16.2519C0.566367 16.406 0.53204 16.543 0.514876 16.6971C0.497713 16.9026 0.480549 17.1081 0.446222 17.2965C0.394732 17.6219 0.394732 17.9473 0.377568 18.2726M0.360405 19.0604C0.360405 18.7864 0.377568 18.5295 0.394732 18.2726C0.394732 17.9473 0.411895 17.6219 0.463386 17.2965H0.446222C0.463386 17.091 0.480549 16.8855 0.514876 16.6971C0.514876 16.7656 0.514876 16.8341 0.497713 16.9026C0.394732 17.776 0.360405 18.4952 0.360405 19.0775M0.360405 19.1117C0.360405 19.1117 0.360405 19.0604 0.360405 19.0432C0.360405 19.0432 0.360405 19.0432 0.360405 19.0604V19.0946M0.377568 20.0194C0.377568 19.7111 0.377568 19.42 0.360405 19.1117C0.360405 19.4714 0.360405 19.7625 0.377568 20.0194ZM0.377568 20.105C0.377568 20.105 0.377568 20.0536 0.377568 20.0194C0.377568 20.0536 0.377568 20.0707 0.377568 20.105ZM0.411895 20.6701C0.411895 20.4817 0.394732 20.2934 0.377568 20.105C0.377568 20.1392 0.377568 20.1906 0.377568 20.2249C0.377568 20.3961 0.377568 20.5502 0.411895 20.653M0.463386 21.1496C0.463386 21.1496 0.463386 21.0811 0.446222 20.9441C0.446222 20.8756 0.446222 20.79 0.411895 20.6701C0.411895 20.8242 0.446222 20.9783 0.463386 21.1496ZM0.840983 24.1464C0.257424 22.0401 0.0686253 19.9851 0.154443 18.1185C0.24026 16.2519 0.58353 14.5737 1.06411 13.1009C1.1156 12.9126 1.16709 12.7413 1.23574 12.5529C1.3044 12.3817 1.37305 12.2104 1.44171 12.0392C1.57901 11.6967 1.69916 11.3713 1.85363 11.0631C1.92228 10.9432 1.97377 10.8062 2.02526 10.6863C1.80214 11.1144 1.59618 11.5597 1.42454 12.0049C0.926801 13.2893 0.58353 14.5908 0.377568 15.8751C0.0686253 17.8103 0.0686253 19.7111 0.308914 21.475C0.429059 22.3997 0.617857 23.2902 0.858146 24.1293" fill="#B17D4C"/>
<path d="M2.45436 10.4114C2.52301 10.2915 2.59167 10.1717 2.64316 10.0689C2.5745 10.1888 2.50585 10.3087 2.45436 10.4114ZM1.47604 12.6719C1.47604 12.6719 1.52753 12.5349 1.54469 12.4835C1.54469 12.4835 1.4932 12.6034 1.47604 12.6719ZM1.28724 13.2199C1.33873 13.0315 1.40739 12.8431 1.45888 12.6719C1.39022 12.8603 1.33873 13.0315 1.28724 13.2199ZM0.858154 14.7782C0.926808 14.5043 0.978299 14.2474 1.04695 13.9905C0.978299 14.2474 0.926808 14.5214 0.858154 14.7782ZM0.755173 15.1892C0.7895 15.0522 0.823827 14.9152 0.858154 14.7954C0.823827 14.9324 0.7895 15.0694 0.755173 15.1892ZM0.703683 15.5317C0.720846 15.4119 0.73801 15.292 0.772337 15.1892C0.755173 15.3091 0.73801 15.429 0.703683 15.5317ZM0.686519 15.6002C0.686519 15.6002 0.686519 15.566 0.686519 15.5317C0.686519 15.5489 0.686519 15.566 0.686519 15.6002ZM0.549211 16.4222C0.549211 16.4222 0.566375 16.3024 0.583538 16.2339C0.617865 16.0626 0.635029 15.8914 0.669356 15.7372C0.669356 15.6859 0.669356 15.6345 0.686519 15.6002C0.686519 15.6516 0.686519 15.703 0.669356 15.7372C0.635029 15.9085 0.617865 16.0626 0.583538 16.2339C0.583538 16.3024 0.566375 16.3537 0.549211 16.4222ZM0.44623 17.2785C0.463394 17.073 0.480557 16.8675 0.514884 16.6791C0.514884 16.5935 0.532048 16.5079 0.549211 16.4222C0.549211 16.4222 0.532048 16.5935 0.514884 16.6791C0.497721 16.8846 0.480557 17.0901 0.44623 17.2785ZM0.360413 18.9738C0.360413 18.7341 0.360413 18.4943 0.377576 18.2546C0.377576 17.9292 0.39474 17.6038 0.44623 17.2785C0.39474 17.6038 0.39474 17.9292 0.377576 18.2546C0.377576 18.4943 0.377576 18.7341 0.360413 18.9738ZM0.360413 19.0423C0.360413 19.0423 0.360413 18.991 0.360413 18.9738C0.360413 18.991 0.360413 19.0252 0.360413 19.0423ZM0.360413 19.0766C0.360413 19.0766 0.360413 19.0595 0.360413 19.0423C0.360413 19.0423 0.360413 19.0595 0.360413 19.0766ZM0.39474 19.9499C0.39474 19.6588 0.360413 19.3677 0.360413 19.0766C0.360413 19.3677 0.377576 19.6588 0.39474 19.9499ZM0.411903 20.4123C0.411903 20.2582 0.411903 20.1041 0.39474 19.9499C0.39474 20.1041 0.39474 20.2582 0.411903 20.4123ZM0.463394 20.8576C0.463394 20.7034 0.429067 20.5664 0.411903 20.4123C0.411903 20.5664 0.44623 20.7034 0.463394 20.8576ZM1.88796 26.4403C1.76782 26.132 1.63051 25.8238 1.51037 25.5155C1.40739 25.2073 1.30441 24.899 1.20142 24.5908C1.08128 24.2825 1.02979 23.9743 0.943972 23.6489C0.858154 23.3407 0.772337 23.0324 0.73801 22.7242C0.7895 23.0324 0.875318 23.3407 0.943972 23.6489C1.02979 23.9572 1.09844 24.2825 1.20142 24.5908C1.30441 24.899 1.40739 25.2073 1.51037 25.5155C1.63051 25.8238 1.75066 26.132 1.88796 26.4403ZM4.08489 30.2762C4.01624 30.1906 3.94759 30.105 3.89609 30.0193C3.96475 30.105 4.01624 30.1906 4.08489 30.2762ZM10.4011 35.739C7.82654 34.3348 5.69826 32.4339 4.08489 30.2591C5.69826 32.4168 7.8437 34.3348 10.4011 35.739Z" fill="#B17D4C"/>
<path d="M2.79767 9.77832C3.7245 8.11722 4.8058 6.76435 5.86994 5.70261C5.93859 5.63411 5.99008 5.58274 6.05873 5.51424C6.12739 5.44574 6.19604 5.37724 6.2647 5.30874C6.402 5.18887 6.53931 5.069 6.65946 4.94912C6.91691 4.70937 7.17436 4.48675 7.43181 4.28125C7.63778 4.11 7.84374 3.95588 8.0497 3.80176C7.8609 3.95588 7.65494 4.12713 7.43181 4.28125C7.17436 4.46963 6.93407 4.70937 6.65946 4.94912C6.52215 5.069 6.402 5.18887 6.2647 5.30874C6.19604 5.37724 6.12739 5.44574 6.05873 5.51424C6.00724 5.58274 5.93859 5.63411 5.86994 5.70261C4.8058 6.78148 3.7245 8.13434 2.79767 9.77832Z" fill="#B17D4C"/>
<path d="M8.97653 3.13401C8.97653 3.13401 9.09667 3.04838 9.16533 2.99701C9.26831 2.92851 9.37129 2.87714 9.47427 2.80864C9.68023 2.68876 9.86903 2.56889 10.0407 2.46614C10.3839 2.24352 10.6929 2.08939 10.9503 1.96952C10.9503 1.96952 10.9675 1.96952 10.9847 1.95239C10.9847 1.95239 10.9675 1.95239 10.9503 1.96952C10.71 2.10652 10.3839 2.26064 10.0407 2.46614C9.86903 2.56889 9.68023 2.68876 9.47427 2.80864C9.37129 2.87714 9.26831 2.92851 9.16533 2.99701C9.09667 3.03126 9.04518 3.08263 8.97653 3.13401ZM8.85638 3.21963C8.85638 3.21963 8.9422 3.15113 8.99369 3.13401C8.9422 3.16826 8.90787 3.20251 8.85638 3.21963Z" fill="#B17D4C"/>
<path d="M23.0849 0.975902C23.0849 0.975902 22.7245 0.890278 22.0722 0.804654C21.42 0.701905 20.4589 0.599156 19.2574 0.599156C20.4589 0.599156 21.42 0.71903 22.0722 0.804654C22.7245 0.907403 23.0849 0.975902 23.0849 0.975902ZM18.7254 0.582031C18.897 0.582031 19.0686 0.582031 19.2231 0.582031C19.2231 0.582031 19.2231 0.582031 19.2403 0.582031C19.2403 0.582031 19.2403 0.582031 19.2231 0.582031C19.0686 0.582031 18.897 0.582031 18.7254 0.582031ZM8.51307 3.95562C8.94216 3.68163 9.35409 3.37338 9.80034 3.13363C9.35409 3.37338 8.95932 3.6645 8.51307 3.95562ZM7.89519 4.40087C8.10115 4.24675 8.28995 4.0755 8.51307 3.95562C8.30711 4.09262 8.10115 4.26387 7.89519 4.40087ZM7.26014 4.89749C7.4661 4.72624 7.67206 4.57212 7.87802 4.41799C7.67206 4.57212 7.44894 4.72624 7.26014 4.89749ZM6.09302 5.95923C6.45345 5.56536 6.88254 5.23998 7.26014 4.89749C6.86538 5.23998 6.45345 5.58248 6.09302 5.95923ZM5.44081 6.6271C5.44081 6.6271 5.47513 6.57572 5.50946 6.5586C5.69826 6.3531 5.88706 6.16473 6.09302 5.97635C6.09302 5.97635 6.09302 5.97635 6.11018 5.95923C6.11018 5.95923 6.11018 5.95923 6.09302 5.97635C5.90422 6.16473 5.69826 6.3531 5.50946 6.5586C5.4923 6.57572 5.47513 6.60997 5.44081 6.6271ZM3.93042 8.51083C4.08489 8.27108 4.27369 8.06558 4.44532 7.84296C4.27369 8.06558 4.10205 8.2882 3.93042 8.51083ZM1.56185 13.0832C1.95661 11.9872 2.42003 10.9254 3.00359 9.93219C2.42003 10.9083 1.95661 11.9872 1.56185 13.0832ZM0.532043 19.1453L0.56637 18.2549V17.8096L0.635024 17.3644L0.738006 16.491L0.892477 15.6176C0.926804 15.4806 0.943968 15.3265 0.978295 15.1895L1.08128 14.7614C1.14993 14.4703 1.21858 14.1963 1.3044 13.9051C1.21858 14.1791 1.14993 14.4703 1.08128 14.7614L0.978295 15.1895C0.943968 15.3265 0.926804 15.4806 0.892477 15.6176L0.738006 16.491L0.635024 17.3644L0.583534 17.8096V18.2549L0.532043 19.1453ZM1.02979 23.4779C0.875314 22.9299 0.823823 22.3648 0.703679 21.7997C0.80666 22.3648 0.875314 22.9299 1.02979 23.4779ZM2.14541 26.8001C1.69916 25.7384 1.28724 24.6595 1.04695 23.5122C1.04695 23.5122 1.04695 23.4779 1.04695 23.4608C1.04695 23.4608 1.04695 23.4951 1.04695 23.5122C1.28724 24.6595 1.69916 25.7555 2.14541 26.8001Z" fill="#B17D4C"/>
</g>
<defs>
<clipPath id="clip0_388_33">
<rect width="38" height="38" fill="white"/>
</clipPath>
</defs>
</svg>
